<?xml version="1.0" encoding="UTF-8" standalone="no"?>
<!-- Created with Inkscape (http://www.inkscape.org/) -->

<svg
   xmlns:dc="http://purl.org/dc/elements/1.1/"
   xmlns:cc="http://creativecommons.org/ns#"
   xmlns:rdf="http://www.w3.org/1999/02/22-rdf-syntax-ns#"
   xmlns:svg="http://www.w3.org/2000/svg"
   xmlns="http://www.w3.org/2000/svg"
   xmlns:sodipodi="http://sodipodi.sourceforge.net/DTD/sodipodi-0.dtd"
   xmlns:inkscape="http://www.inkscape.org/namespaces/inkscape"
   version="1.1"
   id="svg815"
   width="1365.3333"
   height="1365.3333"
   viewBox="0 0 1365.3333 1365.3333"
   sodipodi:docname="pridedice.svg"
   inkscape:version="0.92.3 (2405546, 2018-03-11)"
   inkscape:export-filename="C:\Users\wdueck5\Downloads\dice\bi.png"
   inkscape:export-xdpi="72.000008"
   inkscape:export-ydpi="72.000008">
  <metadata
     id="metadata821">
    <rdf:RDF>
      <cc:Work
         rdf:about="">
        <dc:format>image/svg+xml</dc:format>
        <dc:type
           rdf:resource="http://purl.org/dc/dcmitype/StillImage" />
        <dc:title></dc:title>
      </cc:Work>
    </rdf:RDF>
  </metadata>
  <defs
     id="defs819" />
  <sodipodi:namedview
     pagecolor="#ffffff"
     bordercolor="#666666"
     borderopacity="1"
     objecttolerance="10"
     gridtolerance="10"
     guidetolerance="10"
     inkscape:pageopacity="0"
     inkscape:pageshadow="2"
     inkscape:window-width="1920"
     inkscape:window-height="1027"
     id="namedview817"
     showgrid="false"
     inkscape:zoom="0.11108966"
     inkscape:cx="258.06455"
     inkscape:cy="2090.2907"
     inkscape:window-x="-8"
     inkscape:window-y="-8"
     inkscape:window-maximized="1"
     inkscape:current-layer="g851"
     borderlayer="true"
     inkscape:measure-start="-738.143,1125.22"
     inkscape:measure-end="-580.612,481.593" />
  <g
     style="display:inline"
     inkscape:label="flag (30)"
     id="g851"
     inkscape:groupmode="layer">
    <g
       clip-path="none"
       style="stroke-width:0.92793119"
       id="g1063"
       transform="matrix(-1.1425499,0.65965147,-0.44014295,-0.76234994,1863.2353,295.95408)">
      <rect
         style="opacity:1;fill:#505050;fill-opacity:1;fill-rule:nonzero;stroke:none;stroke-width:1.75357115;stroke-linejoin:bevel;stroke-miterlimit:4;stroke-dasharray:none;stroke-dashoffset:0;stroke-opacity:1;paint-order:markers stroke fill"
         id="rect1053"
         width="1359.2625"
         height="339.81561"
         x="-1550.5493"
         y="613.68817" />
      <rect
         y="273.87256"
         x="-1550.5493"
         height="339.81561"
         width="1359.2625"
         id="rect1055"
         style="opacity:1;fill:#909090;fill-opacity:1;fill-rule:nonzero;stroke:none;stroke-width:1.75357115;stroke-linejoin:bevel;stroke-miterlimit:4;stroke-dasharray:none;stroke-dashoffset:0;stroke-opacity:1;paint-order:markers stroke fill" />
      <rect
         style="opacity:1;fill:#f0f0f0;fill-opacity:1;fill-rule:nonzero;stroke:none;stroke-width:1.75357115;stroke-linejoin:bevel;stroke-miterlimit:4;stroke-dasharray:none;stroke-dashoffset:0;stroke-opacity:1;paint-order:markers stroke fill"
         id="rect1057"
         width="1359.2625"
         height="339.81561"
         x="-1550.5493"
         y="-65.943054" />
      <rect
         y="-405.75867"
         x="-1550.5493"
         height="339.81561"
         width="1359.2625"
         id="rect1059"
         style="opacity:1;fill:#9c63c8;fill-opacity:1;fill-rule:nonzero;stroke:none;stroke-width:1.75357115;stroke-linejoin:bevel;stroke-miterlimit:4;stroke-dasharray:none;stroke-dashoffset:0;stroke-opacity:1;paint-order:markers stroke fill" />
    </g>
    <g
       transform="matrix(1.1384374,-0.65727712,0.24640588,0.4267875,-281.74192,-2783.3805)"
       id="g972"
       style="stroke-width:1.24242485"
       clip-path="none">
      <rect
         y="613.68817"
         x="-1550.5493"
         height="339.81561"
         width="1359.2625"
         id="rect962"
         style="opacity:1;fill:#f0f0f0;fill-opacity:1;fill-rule:nonzero;stroke:none;stroke-width:2.3478899;stroke-linejoin:bevel;stroke-miterlimit:4;stroke-dasharray:none;stroke-dashoffset:0;stroke-opacity:1;paint-order:markers stroke fill" />
      <rect
         style="opacity:1;fill:#b9f484;fill-opacity:1;fill-rule:nonzero;stroke:none;stroke-width:2.3478899;stroke-linejoin:bevel;stroke-miterlimit:4;stroke-dasharray:none;stroke-dashoffset:0;stroke-opacity:1;paint-order:markers stroke fill"
         id="rect964"
         width="1359.2625"
         height="339.81561"
         x="-1550.5493"
         y="273.87256" />
      <rect
         y="-65.943054"
         x="-1550.5493"
         height="339.81561"
         width="1359.2625"
         id="rect966"
         style="opacity:1;fill:#f0f0f0;fill-opacity:1;fill-rule:nonzero;stroke:none;stroke-width:2.3478899;stroke-linejoin:bevel;stroke-miterlimit:4;stroke-dasharray:none;stroke-dashoffset:0;stroke-opacity:1;paint-order:markers stroke fill" />
      <rect
         style="opacity:1;fill:#909090;fill-opacity:1;fill-rule:nonzero;stroke:none;stroke-width:2.3478899;stroke-linejoin:bevel;stroke-miterlimit:4;stroke-dasharray:none;stroke-dashoffset:0;stroke-opacity:1;paint-order:markers stroke fill"
         id="rect968"
         width="1359.2625"
         height="339.81561"
         x="-1550.5493"
         y="-405.75867" />
      <rect
         style="opacity:1;fill:#505050;fill-opacity:1;fill-rule:nonzero;stroke:none;stroke-width:2.3478899;stroke-linejoin:bevel;stroke-miterlimit:4;stroke-dasharray:none;stroke-dashoffset:0;stroke-opacity:1;paint-order:markers stroke fill"
         id="rect974"
         width="1359.2625"
         height="339.81561"
         x="-1550.5493"
         y="-745.57428" />
      <rect
         style="opacity:1;fill:#505050;fill-opacity:1;fill-rule:nonzero;stroke:none;stroke-width:2.3478899;stroke-linejoin:bevel;stroke-miterlimit:4;stroke-dasharray:none;stroke-dashoffset:0;stroke-opacity:1;paint-order:markers stroke fill"
         id="rect1189"
         width="1359.2625"
         height="339.81561"
         x="-1550.5493"
         y="1293.3195" />
      <rect
         y="953.50378"
         x="-1550.5493"
         height="339.81561"
         width="1359.2625"
         id="rect1191"
         style="opacity:1;fill:#909090;fill-opacity:1;fill-rule:nonzero;stroke:none;stroke-width:2.3478899;stroke-linejoin:bevel;stroke-miterlimit:4;stroke-dasharray:none;stroke-dashoffset:0;stroke-opacity:1;paint-order:markers stroke fill" />
    </g>
    <g
       clip-path="none"
       style="stroke-width:1.18630016"
       id="g1176"
       transform="matrix(0.89370956,-0.51598342,0.34428251,0.59631479,-38.09727,-1056.2173)">
      <rect
         style="opacity:1;fill:#0035a9;fill-opacity:1;fill-rule:nonzero;stroke:none;stroke-width:2.24182749;stroke-linejoin:bevel;stroke-miterlimit:4;stroke-dasharray:none;stroke-dashoffset:0;stroke-opacity:1;paint-order:markers stroke fill"
         id="rect1166"
         width="1359.2625"
         height="339.81561"
         x="-1550.5493"
         y="613.68817" />
      <rect
         y="273.87256"
         x="-1550.5493"
         height="339.81561"
         width="1359.2625"
         id="rect1168"
         style="opacity:1;fill:#ffd900;fill-opacity:1;fill-rule:nonzero;stroke:none;stroke-width:2.24182749;stroke-linejoin:bevel;stroke-miterlimit:4;stroke-dasharray:none;stroke-dashoffset:0;stroke-opacity:1;paint-order:markers stroke fill" />
      <rect
         style="opacity:1;fill:#9c4e97;fill-opacity:1;fill-rule:nonzero;stroke:none;stroke-width:2.24182749;stroke-linejoin:bevel;stroke-miterlimit:4;stroke-dasharray:none;stroke-dashoffset:0;stroke-opacity:1;paint-order:markers stroke fill"
         id="rect1170"
         width="1359.2625"
         height="339.81561"
         x="-1550.5493"
         y="-65.943054" />
      <rect
         y="-405.75867"
         x="-1550.5493"
         height="339.81561"
         width="1359.2625"
         id="rect1172"
         style="opacity:1;fill:#b9f484;fill-opacity:1;fill-rule:nonzero;stroke:none;stroke-width:2.24182749;stroke-linejoin:bevel;stroke-miterlimit:4;stroke-dasharray:none;stroke-dashoffset:0;stroke-opacity:1;paint-order:markers stroke fill" />
      <rect
         y="-745.57428"
         x="-1550.5493"
         height="339.81561"
         width="1359.2625"
         id="rect1174"
         style="opacity:1;fill:#d70071;fill-opacity:1;fill-rule:nonzero;stroke:none;stroke-width:2.24182749;stroke-linejoin:bevel;stroke-miterlimit:4;stroke-dasharray:none;stroke-dashoffset:0;stroke-opacity:1;paint-order:markers stroke fill" />
    </g>
    <path
       style="opacity:1;vector-effect:none;fill:#000000;fill-opacity:1;stroke:#000000;stroke-width:1.88976395;stroke-linecap:butt;stroke-linejoin:miter;stroke-miterlimit:4;stroke-dasharray:none;stroke-dashoffset:0;stroke-opacity:1"
       d="m 126.58701,357.13856 34.3191,-32.6313 499.59636,-284.679883 37.1323,-6.188789 132.21291,75.389622 395.97972,227.91237 22.0385,25.26145 4.5009,35.44437 -3.3757,589.6139 -7.3139,21.9417 -31.5061,27.0052 -491.15743,283.5545 -25.88019,9.0018 -27.00499,-2.2504 -90.58009,-50.0723 -441.08513,-255.4242 -17.44073,-27.00543 -8e-5,-59.07386 -1.12527,-552.48167 z"
       id="path1227"
       inkscape:connector-curvature="0" />
    <g
       id="g904"
       transform="matrix(0.87931514,-0.50767284,0.28603955,0.49543503,-1673.1653,-785.95514)"
       style="stroke-width:1.31209409">
      <rect
         y="953.50378"
         x="-1550.5493"
         height="339.81561"
         width="1359.2625"
         id="rect871"
         style="opacity:1;fill:#004cff;fill-opacity:1;fill-rule:nonzero;stroke:none;stroke-width:2.47954798;stroke-linejoin:bevel;stroke-miterlimit:4;stroke-dasharray:none;stroke-dashoffset:0;stroke-opacity:1;paint-order:markers stroke fill" />
      <rect
         style="opacity:1;fill:#008121;fill-opacity:1;fill-rule:nonzero;stroke:none;stroke-width:2.47954798;stroke-linejoin:bevel;stroke-miterlimit:4;stroke-dasharray:none;stroke-dashoffset:0;stroke-opacity:1;paint-order:markers stroke fill"
         id="rect888"
         width="1359.2625"
         height="339.81561"
         x="-1550.5493"
         y="613.68817" />
      <rect
         y="273.87256"
         x="-1550.5493"
         height="339.81561"
         width="1359.2625"
         id="rect890"
         style="opacity:1;fill:#ffee00;fill-opacity:1;fill-rule:nonzero;stroke:none;stroke-width:2.47954798;stroke-linejoin:bevel;stroke-miterlimit:4;stroke-dasharray:none;stroke-dashoffset:0;stroke-opacity:1;paint-order:markers stroke fill" />
      <rect
         style="opacity:1;fill:#ff8d00;fill-opacity:1;fill-rule:nonzero;stroke:none;stroke-width:2.47954798;stroke-linejoin:bevel;stroke-miterlimit:4;stroke-dasharray:none;stroke-dashoffset:0;stroke-opacity:1;paint-order:markers stroke fill"
         id="rect892"
         width="1359.2625"
         height="339.81561"
         x="-1550.5493"
         y="-65.943054" />
      <rect
         y="-405.75867"
         x="-1550.5493"
         height="339.81561"
         width="1359.2625"
         id="rect894"
         style="opacity:1;fill:#e50000;fill-opacity:1;fill-rule:nonzero;stroke:none;stroke-width:2.47954798;stroke-linejoin:bevel;stroke-miterlimit:4;stroke-dasharray:none;stroke-dashoffset:0;stroke-opacity:1;paint-order:markers stroke fill" />
      <rect
         style="opacity:1;fill:#760188;fill-opacity:1;fill-rule:nonzero;stroke:none;stroke-width:2.47954798;stroke-linejoin:bevel;stroke-miterlimit:4;stroke-dasharray:none;stroke-dashoffset:0;stroke-opacity:1;paint-order:markers stroke fill"
         id="rect896"
         width="1359.2625"
         height="339.81561"
         x="-1550.5493"
         y="1293.3193" />
    </g>
    <g
       transform="matrix(1.6095564,-0.92927775,0.62004721,1.0739532,2481.732,-2366.5732)"
       id="g1031"
       style="stroke-width:0.65869564"
       clip-path="none">
      <rect
         style="opacity:1;fill:#1bb3ff;fill-opacity:1;fill-rule:nonzero;stroke:none;stroke-width:1.24477947;stroke-linejoin:bevel;stroke-miterlimit:4;stroke-dasharray:none;stroke-dashoffset:0;stroke-opacity:1;paint-order:markers stroke fill"
         id="rect1025"
         width="1359.2625"
         height="339.81561"
         x="-1550.5493"
         y="273.87256" />
      <rect
         y="-65.943054"
         x="-1550.5493"
         height="339.81561"
         width="1359.2625"
         id="rect1027"
         style="opacity:1;fill:#ffd900;fill-opacity:1;fill-rule:nonzero;stroke:none;stroke-width:1.24477947;stroke-linejoin:bevel;stroke-miterlimit:4;stroke-dasharray:none;stroke-dashoffset:0;stroke-opacity:1;paint-order:markers stroke fill" />
      <rect
         style="opacity:1;fill:#ff1b8d;fill-opacity:1;fill-rule:nonzero;stroke:none;stroke-width:1.24477947;stroke-linejoin:bevel;stroke-miterlimit:4;stroke-dasharray:none;stroke-dashoffset:0;stroke-opacity:1;paint-order:markers stroke fill"
         id="rect1029"
         width="1359.2625"
         height="339.81561"
         x="-1550.5493"
         y="-405.75867" />
    </g>
  </g>
  <g
     inkscape:groupmode="layer"
     id="layer2"
     inkscape:label="lines/shade"
     style="display:inline"
     sodipodi:insensitive="true">
    <path
       style="fill:#000000;stroke-width:1"
       d="m 672.53613,1336.004 c -12.574,-1.8438 -24.11332,-6.713 -37.86948,-15.98 -4.03333,-2.7172 -23.83333,-14.4316 -44,-26.0321 C 456.2114,1216.649 299.4599,1126.3935 238.66666,1091.3147 c -39.23333,-22.6383 -76.73333,-44.1073 -83.33333,-47.7088 -26.72823,-14.5851 -38.41233,-27.2892 -45.37999,-49.34142 l -3.28668,-10.40216 V 682.87796 c 0,-328.35237 -0.48564,-307.33592 7.46919,-323.2337 8.67239,-17.33187 18.85838,-26.7364 41.86415,-38.65241 7.7,-3.98828 24.8,-13.55868 38,-21.26756 13.19999,-7.70888 54.89999,-31.90267 92.66666,-53.76396 37.76667,-21.8613 75.56666,-43.74568 84,-48.63196 15.3623,-8.90096 152.06334,-87.98812 224.66666,-129.978897 21.26666,-12.299765 40.16666,-23.409123 42,-24.687463 6.81792,-4.753975 20.23057,-10.747393 28.31964,-12.654585 21.83061,-5.147087 43.70146,-0.480284 64.75613,13.817667 7.23785,4.915137 33.62972,20.30166 124.25756,72.442468 61.94431,35.63834 228.01095,131.27743 260.66665,150.12002 30.2162,17.43493 92.3348,52.93416 107.3333,61.33828 14.384,8.05976 30.1305,28.60202 34.4762,44.97606 2.2608,8.51876 2.9074,604.0708 0.6678,615.07778 -4.8593,23.8813 -19.784,41.7689 -45.8106,54.9049 -5.5,2.7759 -19.3,10.4175 -30.6667,16.9813 -11.3667,6.5638 -34.1667,19.7247 -50.6667,29.2465 -16.5,9.5219 -43.2,24.9811 -59.3333,34.3538 -54.2384,31.5101 -87.81784,50.9775 -118.66666,68.7961 -16.86666,9.7423 -42.06666,24.2974 -56,32.3447 -94.56759,54.6181 -153.93964,89.1039 -165.99999,96.4198 -15.7098,9.5298 -25.08151,13.2361 -38.30339,15.148 -9.98909,1.4444 -10.17357,1.4446 -19.82713,0.029 z m 35.41607,-20.3153 c 7.28453,-3.7177 54.04649,-30.6395 206.04778,-118.6262 27.50696,-15.9226 196.53102,-113.3218 250.00002,-144.0612 26.7666,-15.3882 51.7395,-29.9636 55.4953,-32.3898 7.1687,-4.6309 14.611,-12.8712 18.4513,-20.4298 6.3317,-12.46224 6.0065,4.4425 6.1,-317.13857 0.083,-285.13609 -0.044,-302.49125 -2.2665,-309.55735 -3.3953,-10.79614 -11.9255,-22.58679 -20.5215,-28.36524 -3.9923,-2.6837 -42.9586,-25.43373 -86.592,-50.55564 C 1051.2901,246.56083 994.60996,213.81889 825.99998,116.25996 769.53331,83.587947 717.45172,53.813635 710.26309,50.094817 l -13.07023,-6.761485 h -14.31229 c -13.29695,0 -14.87636,0.286676 -22.26311,4.040943 -4.37294,2.222518 -42.75081,24.191514 -85.28414,48.819991 C 475.15786,154.19981 430.08106,180.23805 333.33333,235.98353 168.93936,330.70638 146.83309,343.57183 141.52281,347.61388 c -2.46244,1.87436 -6.77681,6.9659 -9.58747,11.31454 -9.96035,15.41061 -9.11116,-12.43068 -9.69146,317.73823 -0.28742,163.53333 -0.0372,300.91275 0.55615,305.28762 2.22586,16.41284 13.32149,32.68983 27.95077,41.00293 3.25372,1.8489 31.71586,18.2502 63.24919,36.4473 31.53334,18.1971 65.43334,37.6755 75.33334,43.2853 9.9,5.6098 36,20.5865 57.99999,33.2815 38.7172,22.3415 57.33659,33.1194 118,68.3045 15.76667,9.1447 37.06667,21.436 47.33333,27.3139 10.26667,5.8778 38.16667,21.9724 62,35.7656 56.05427,32.4407 76.75471,44.2797 83.33333,47.66 9.56263,4.9137 16.65711,6.2922 29.28555,5.6904 10.27431,-0.4896 13.17559,-1.1939 20.66667,-5.017 z m -39.98135,-0.022 c -1.37172,-1.65 -34.13589,-42.6 -72.80929,-91 -38.67339,-48.4 -77.59392,-97 -86.49008,-108 -8.89616,-11 -30.80718,-38.3 -48.69117,-60.6666 -17.88397,-22.3667 -51.47156,-64.36669 -74.63905,-93.33336 -23.16751,-28.96666 -43.10164,-54.08554 -44.29808,-55.81973 -2.50379,-3.62913 -1.791,-6.84693 1.51668,-6.84693 2.96373,0 4.99205,2.26492 31.04548,34.66666 12.08792,15.03334 30.20204,37.53334 40.25358,50 10.05156,12.46667 51.51382,64.06666 92.13833,114.66666 40.62454,50.6 95.44178,118.8425 121.81611,151.6501 26.37433,32.8075 48.20817,60.4075 48.51964,61.3333 2.03609,6.052 -4.07915,8.5019 -8.36215,3.3499 z m 29.6958,-1.8825 c -0.91667,-0.3701 -1.66667,-1.4761 -1.66667,-2.4577 0,-2.2052 38.99475,-53.239 96.95369,-126.8868 45.9106,-58.3382 66.33368,-84.4023 109.52183,-139.773 87.47169,-112.14562 113.8662,-144.8073 116.6953,-144.40364 1.9003,0.27115 2.9589,1.51592 3.2241,3.79134 0.3126,2.68081 -5.9309,11.44425 -29.92296,42 -31.7324,40.4137 -105.04241,133.3001 -130.44537,165.279 -8.15551,10.2667 -21.65692,27.3667 -30.00316,38 -8.34623,10.6333 -19.44339,24.7333 -24.66036,31.3333 -5.21698,6.6 -15.11684,19.2 -21.9997,28 -25.7634,32.9395 -75.09698,94.1758 -80.46386,99.8773 -3.0614,3.2523 -6.31617,5.6104 -7.23284,5.2402 z m -31.62896,-157.8727 c -14.29932,-2.3906 -25.19787,-8.1853 -33.822,-17.9828 -14.54388,-16.5227 -12.04215,-37.6475 5.96131,-50.3375 l 5.79286,-4.0832 -6.98494,-3.8154 c -19.29426,-10.5391 -28.92944,-30.2974 -25.24691,-51.7723 1.98184,-11.5572 5.33272,-18.3132 13.38569,-26.9883 22.27983,-24.00099 76.73332,-24.55414 103.16062,-1.04792 11.9466,10.62612 18.34662,29.64692 15.65168,46.51652 -2.54288,15.9178 -10.49807,27.0607 -24.58472,34.436 l -7.12478,3.7303 4.22008,2.516 c 6.35836,3.7909 12.818,10.3305 15.67024,15.8641 3.4238,6.6424 3.42779,20.9909 0.008,28.5212 -8.65756,19.0636 -36.55272,29.381 -66.08708,24.4433 z m 26.00761,-21.5781 c 15.51864,-7.8328 15.56268,-28.398 0.0783,-36.5666 -7.36048,-3.883 -19.84704,-4.2397 -26.76372,-0.7647 -9.58161,4.814 -13.78933,18.4765 -8.71336,28.2924 5.62173,10.8712 22.98465,15.3048 35.39877,9.0389 z m 3.40724,-67.0661 c 8.6189,-5.3287 13.0067,-13.7395 13.06606,-25.0459 0.10653,-20.2901 -11.97246,-33.2341 -31.21912,-33.4549 -17.91831,-0.2055 -29.39067,10.5916 -30.40934,28.6194 -0.60586,10.7223 1.2585,17.1721 6.78224,23.4633 7.01466,7.9893 15.20426,11.2178 27.18651,10.7177 6.37239,-0.2659 9.61427,-1.2211 14.59365,-4.2996 z m 201.77821,84.8353 c -2.96912,-2.9691 -3.88991,-5.1128 -3.86579,-9 0.0751,-12.0986 11.76482,-31.1673 30.52684,-49.7962 16.9387,-16.8186 35.19682,-28.0852 56.77484,-35.0342 28.77326,-9.2662 52.26866,-9.5419 61.09376,-0.7169 3.6637,3.6638 3.8825,4.4488 3.2337,11.604 -1.2871,14.1937 -12.5134,31.862 -31.7526,49.9729 -16.63823,15.6626 -35.67967,25.1561 -38.05271,18.9721 -1.9018,-4.9561 7.44301,-15.1517 20.4816,-22.3465 16.47521,-9.0911 27.67691,-22.5628 26.74011,-32.1588 -0.5537,-5.6713 -4.7146,-7.5548 -16.7439,-7.5793 l -9.66662,-0.02 v 6.4537 c 0,27.9812 -54.7568,73.5463 -88.3827,73.5463 -5.39438,0 -7.1466,-0.6575 -10.38653,-3.8975 z m 47.75992,-27.0208 c 14.27287,-5.3078 30.51015,-20.656 33.93067,-32.0727 2.21616,-7.3969 0.50257,-9.5751 -7.9251,-10.0741 -16.29822,-0.9649 -42.24822,16.2218 -50.44438,33.4094 -5.72288,12.001 5.18072,15.8993 24.43881,8.7374 z m -537.02733,19.3126 c -1.81318,-1.2498 -11.94434,-10.2866 -22.51368,-20.0818 -12.70262,-11.7722 -25.11579,-21.7366 -36.61807,-29.3943 -16.90428,-11.2541 -23.49826,-17.7336 -23.49826,-23.09 0,-1.466 1.27704,-2.7646 3.19102,-3.245 5.35323,-1.3436 105.90519,13.7914 112.44621,16.9253 7.72066,3.699 17.6961,14.9558 17.6961,19.969 0,3.4445 -0.45264,3.8558 -4.2437,3.8558 -2.33402,0 -19.50292,-2.1307 -38.15309,-4.7349 -18.65017,-2.6043 -34.81037,-4.5543 -35.91156,-4.3334 -1.23072,0.2469 2.03913,3.816 8.48643,9.2631 14.71433,12.4317 28.16422,26.7153 29.25742,31.0709 1.4946,5.955 -4.01405,8.017 -10.13882,3.7953 z m -49.96335,-112.4412 c -23.53505,-2.9653 -46.42926,-11.1405 -63.31928,-22.6102 -24.3407,-16.52951 -41.90704,-44.80326 -34.16833,-54.99544 2.57165,-3.38698 10.56143,-6.34827 17.11145,-6.34212 7.78739,0.007 27.62712,3.35642 39.46283,6.66165 31.67414,8.84529 66.52048,37.82691 72.438,60.24651 3.81318,14.447 -6.75688,20.1602 -31.52467,17.0396 z m 9.23809,-24.715 c 3.02699,-3.027 2.63195,-4.9938 -2.30248,-11.46327 -9.40062,-12.32507 -25.63414,-19.99919 -52.08802,-24.62375 -25.42612,-4.44489 -35.70985,-2.7577 -33.63281,5.5179 1.25232,4.98961 11.5017,15.54194 19.12661,19.69194 17.38376,9.46138 63.09562,16.67828 68.8967,10.87718 z m 616.18126,8.323 c -1.92098,-1.4047 -2.1301,-2.3208 -1.0083,-4.4169 2.6647,-4.979 13.3442,-13.64224 18.46806,-14.98133 2.8165,-0.73605 19.5209,-3.497 37.1209,-6.13541 17.6,-2.6384 33.2862,-5.06938 34.8583,-5.40215 2.5847,-0.54711 2.9053,-1.63777 3.3482,-11.3914 0.4859,-10.69983 0.5343,-10.82784 6.0338,-15.95767 5.7707,-5.38282 11.7315,-7.83781 13.8607,-5.70857 0.7633,0.76325 0.6844,4.23972 -0.2053,9.05268 -1.8347,9.92457 -0.8274,15.17387 4.1016,21.37632 3.7438,4.71095 3.8349,5.12689 1.9288,8.81283 -3.2343,6.25446 -10.9744,10.4193 -23.4126,12.598 -11.7126,2.0516 -89.85042,13.9258 -91.63819,13.9258 -0.56777,0 -2.12296,-0.7975 -3.45597,-1.7722 z m 237.91396,-16.6855 c -7.91,-3.97517 -21.7789,-11.76605 -63.3333,-35.57757 -22,-12.60645 -52.6,-29.97475 -68,-38.59623 -47.5017,-26.59318 -51.1347,-29.29132 -45.2419,-33.60022 5.012,-3.66492 7.4927,-2.52004 51.2941,23.67372 10.662,6.37601 32.562,19.22456 48.6666,28.55232 50.648,29.33513 83.0332,48.767 84.7769,50.86805 1.1826,1.42499 1.2813,2.66468 0.3317,4.17004 -1.9365,3.06999 -3.2437,3.14849 -8.4941,0.50989 z M 135.90724,997.88822 c -3.56856,-4.29986 -2.63152,-4.93991 62.75942,-42.86783 20.9,-12.12237 47.3,-27.55861 58.66667,-34.30276 55.96642,-33.20636 62.73466,-36.27784 63.77381,-28.94103 0.64268,4.5376 -2.63963,7.42435 -19.05593,16.75944 -8.09483,4.60311 -39.61788,22.63831 -70.05122,40.07823 -74.03467,42.4258 -90.14989,51.38571 -92.42189,51.38571 -1.05504,0 -2.70693,-0.9503 -3.67086,-2.11176 z M 228.63862,897.4224 c -7.81079,-6.83504 -12.30804,-8.54052 -20.63057,-7.82368 -4.15488,0.35787 -4.91156,-0.10333 -6.99793,-4.26541 -4.7121,-9.4001 -3.52907,-15.08688 13.51055,-64.94465 8.71971,-25.51377 16.23503,-47.65955 16.70071,-49.21284 0.46568,-1.55328 1.96007,-3.83173 3.32084,-5.06323 2.26405,-2.04893 2.65464,-2.0586 4.59939,-0.11386 2.69173,2.69173 6.19425,14.34689 6.18352,20.57657 -0.004,2.61691 -5.47512,20.658 -12.15692,40.09133 -6.6818,19.43334 -12.42552,36.56543 -12.76383,38.07132 -0.43899,1.95412 0.32239,3.16511 2.65948,4.22996 4.72597,2.15331 12.78476,9.52572 14.82604,13.56331 3.77263,7.4621 3.68601,19.83233 -0.1478,21.11026 -0.79521,0.26507 -4.89177,-2.53352 -9.10348,-6.21909 z m 158.6947,-6.74184 c -17.6,-0.37432 -32.75,-1.166 -33.66666,-1.75928 -2.84751,-1.84294 -1.83663,-4.82297 2,-5.8959 2.01666,-0.56397 150.90121,-1.0254 330.85454,-1.0254 308.80695,0 327.2697,0.12973 328.6441,2.30832 1.1214,1.77763 0.9477,2.81672 -0.7553,4.51976 -2.0455,2.04548 -24.45909,2.22353 -298.64407,2.37226 -163.03793,0.0885 -310.83261,-0.14545 -328.43261,-0.51976 z M 1191.4996,876.1837 c -5.3159,-5.87392 -5.7792,-22.40649 -0.8003,-28.55515 2.2723,-2.80616 2.4954,-2.834 4.9451,-0.61698 4.2083,3.80844 6.9399,2.84678 9.7115,-3.41891 5.8452,-13.21391 6.4863,-33.33415 1.8637,-58.48791 -2.3663,-12.87596 -4.553,-14.37117 -4.553,-3.11325 0,22.00648 -11.7311,50.00848 -20.9505,50.00848 -6.3133,0 -13.8491,-12.98929 -18.0483,-31.10972 -3.8741,-16.7174 -4.125,-55.86336 -0.4672,-72.89028 5.3389,-24.85192 15.1769,-44 22.6066,-44 10.2771,0 19.8448,20.4165 27.4927,58.66667 5.8203,29.10941 7.1658,43.09538 6.3338,65.83474 -1.1405,31.16544 -8.047,56.88162 -17.9314,66.76591 -4.0316,4.03171 -7.1314,4.31012 -10.2027,0.9164 z m 0.3929,-82.68149 c 8.0619,-15.94039 6.8256,-53.04051 -2.2896,-68.70993 -3.1126,-5.35068 -8.5898,-6.24643 -11.4516,-1.8728 -9.8636,15.07433 -6.9589,62.93961 4.5158,74.41433 3.3736,3.37358 6.1684,2.21281 9.2254,-3.8316 z m -149.6703,76.27554 c -2.2989,-2.29885 0.4445,-10.79845 18.5812,-57.56884 10.7086,-27.6149 29.3496,-75.70893 41.4245,-106.87559 12.0749,-31.16667 31.4899,-80.96667 43.1445,-110.66667 11.6545,-29.7 35.2518,-90.3 52.4385,-134.66666 17.1866,-44.36667 32.0064,-82.31667 32.9328,-84.33333 2.2443,-4.88583 7.9229,-5.21594 7.9229,-0.46056 0,1.76334 -7.5596,22.61334 -16.7991,46.33333 -9.2396,23.71997 -25.6837,65.92722 -36.5426,93.79389 -10.8589,27.86667 -26.6521,68.66667 -35.096,90.66667 -8.444,21.99999 -24.1574,62.49999 -34.9188,89.99999 -10.7613,27.5 -25.1445,64.4 -31.9625,82 -36.0303,93.00879 -37.226,95.67716 -41.1254,91.77777 z m -703.43445,-2.88484 c -0.89918,-1.68014 -0.7789,-3.44546 0.38612,-5.66666 2.5926,-4.94302 48.36583,-84.90263 67.48832,-117.89293 9.35152,-16.13334 27.67579,-47.93334 40.72059,-70.66667 13.04478,-22.73333 40.50647,-70.43333 61.02595,-106 20.51948,-35.56666 46.28715,-80.26666 57.2615,-99.33333 10.97433,-19.06666 24.31161,-42.16666 29.6384,-51.33333 5.32677,-9.16667 14.64561,-25.36667 20.70851,-36 32.54988,-57.08705 50.97846,-86.66666 53.99472,-86.66666 7.79912,0 3.18966,8.81496 -76.69406,146.66666 -7.86175,13.56667 -30.35808,52.56666 -49.99184,86.66666 -19.63376,34.1 -44.24135,76.7 -54.68351,94.66667 -10.44217,17.96666 -26.94553,46.46666 -36.67413,63.33333 -9.72861,16.86667 -29.99926,51.96667 -45.04589,78 -15.04664,26.03333 -29.25081,50.63333 -31.56481,54.66666 -15.82268,27.57904 -29.3625,50.14727 -30.58522,50.97959 -2.43033,1.65432 -4.61699,1.13549 -5.98465,-1.41999 z m 681.63745,-1.86732 c -4.1259,-4.53208 -16.6636,-24.98342 -39.23942,-64.00682 C 970.04331,781.75843 957.627,760.29998 953.594,753.33331 943.74392,736.31813 911.53019,680.30153 904.90434,668.66665 901.981,663.53332 888.79611,640.73332 875.60457,617.99998 862.41303,595.26665 840.32017,557.041 826.50929,533.05409 812.69842,509.06717 789.29437,468.56718 774.50029,443.0541 687.883,293.67857 686.55514,291.14241 695.5469,292.25581 c 2.77302,0.34337 5.94963,4.9005 19.33948,27.74418 25.10328,42.82729 28.70027,49.01856 51.12596,88 11.60171,20.16667 35.30299,61.26667 52.66951,91.33333 17.36652,30.06667 38.65769,66.96667 47.31373,82 14.08893,24.46889 55.29489,95.62561 85.70493,148 57.41269,98.88026 75.48649,131.65826 74.73449,135.53595 -0.6667,3.43787 -2.9679,3.49772 -6.0098,0.15632 z m -700.72633,-0.64292 c -1.88978,-2.10694 -38.59606,-92.76408 -84.37232,-208.38269 -15.30393,-38.65368 -58.39579,-146.45002 -67.95793,-169.99999 -5.53889,-13.6414 -24.0998,-61.36557 -33.24505,-85.48032 -3.36797,-8.88085 -6.12357,-17.43085 -6.12357,-19 0,-3.13123 2.89738,-3.81649 5.016,-1.18635 2.13393,2.64914 25.74902,60.05 62.94522,153 18.92824,47.3 40.25061,100.4 47.38304,118 48.50643,119.69442 83.37517,208.42886 83.04028,211.32193 -0.47164,4.07426 -3.80763,4.93621 -6.68567,1.72742 z M 167.24609,800.16425 c -12.91148,-7.87351 -29.73353,-44.72336 -33.8162,-74.07671 -3.91489,-28.14698 0.94451,-49.58186 12.21273,-53.87058 4.75604,-1.81016 5.32202,-1.698 14.65226,2.90392 5.33781,2.63274 13.1236,6.65344 17.30173,8.93488 14.33487,7.82742 14.34239,7.04705 0.25068,-26.05578 -15.68455,-36.84456 -16.51396,-39.32605 -16.51396,-49.40758 0,-9.94597 2.50103,-13.39363 6.6372,-9.14935 1.37048,1.40632 11.31113,23.55693 22.09035,49.2236 19.06697,45.40088 19.61553,46.97407 20.22458,58 0.56448,10.21889 0.34667,11.62833 -2.21499,14.33333 -1.56256,1.65 -4.22371,3 -5.91367,3 -4.98784,0 -17.72592,-4.8825 -29.54191,-11.3234 -6.06395,-3.30546 -12.17841,-6.00993 -13.58771,-6.00993 -4.08354,0 -8.13357,5.47723 -9.8018,13.25585 -3.4399,16.03976 6.18531,46.54019 15.41828,48.85752 2.42386,0.60835 4.41063,-0.0968 7.42912,-2.63668 5.32372,-4.47961 8.24242,-3.06239 11.12682,5.40283 3.99269,11.7179 1.95589,24.29212 -4.68876,28.94622 -3.99742,2.7999 -6.24244,2.7345 -11.26475,-0.32814 z m 588.90366,-10.27167 c -19.27786,-5.18447 -36.03051,-19.32621 -45.15658,-38.11893 -8.60589,-17.72155 -12.21369,-37.28932 -12.28535,-66.6324 -0.11573,-47.40543 7.69306,-75.82748 25.78451,-93.84886 16.31739,-16.2542 39.49805,-22.49608 64.15106,-17.27402 20.93002,4.43346 37.30306,17.6449 47.07092,37.98162 10.25926,21.35975 12.88867,38.99413 11.91438,79.9045 -0.5556,23.32952 -1.22231,30.88709 -3.52972,40.01221 -7.71126,30.49548 -26.62547,51.21861 -53.02339,58.09439 -9.51756,2.47901 -25.46851,2.42489 -34.92583,-0.11854 z m 32.31891,-31.10357 c 11.6484,-7.19911 17.59601,-24.95197 19.47231,-58.12236 1.88673,-33.35513 -0.92615,-65.01232 -7.08672,-79.75667 -2.33286,-5.5833 -9.50476,-13.82781 -14.05219,-16.15378 -11.12943,-5.69257 -26.21301,-2.98371 -33.99236,6.10471 -8.73397,10.20367 -12.59154,27.19935 -13.72566,60.47241 -1.76611,51.81416 5.6868,80.84455 22.82162,88.89422 7.143,3.35567 19.92593,2.6634 26.563,-1.43853 z m -254.76861,29.24972 c -22.01909,-5.23152 -21.34904,-28.98726 1.4981,-53.113 13.42965,-14.18121 40.1983,-38.66483 52.57073,-48.08315 19.69796,-14.99478 28.71528,-25.80269 33.61204,-40.28649 4.63897,-13.72129 1.82134,-25.82103 -8.26409,-35.48853 -6.31691,-6.05513 -12.88912,-8.40568 -23.40735,-8.37163 -16.82072,0.0545 -27.717,8.681 -34.55035,27.35332 -2.42284,6.62045 -5.58368,12.31764 -8.61936,15.53577 -4.23284,4.48722 -5.52728,5.08163 -11.06621,5.08163 -8.26275,0 -13.2438,-2.75121 -16.17869,-8.93604 -2.09451,-4.41384 -2.21962,-6.29211 -0.98832,-14.83895 3.05745,-21.22279 18.39837,-40.18953 38.9021,-48.09661 24.65972,-9.50978 59.82848,-7.43246 78.99361,4.66596 24.39415,15.39935 34.12464,49.26961 21.8616,76.0968 -7.61849,16.66657 -17.03844,27.13008 -46.06387,51.16692 -9.16667,7.59119 -19.96667,16.72941 -24,20.30717 -7.52035,6.67092 -20,20.77959 -20,22.61068 0,0.56324 18.45,1.02741 41,1.03151 23.85133,0.004 43.05545,0.57832 45.91429,1.37233 7.37902,2.04947 11.75237,8.01643 11.75237,16.03483 0,8.22029 -4.67847,14.11432 -12.66667,15.9577 -6.36426,1.46864 -114.11841,1.46844 -120.29993,-2.2e-4 z M 1040.4406,640.11396 c -2.3243,-1.43602 -6.6967,-6.24912 -9.7163,-10.69579 -3.0197,-4.44667 -5.7608,-8.08485 -6.0913,-8.08485 -0.3305,0 -5.833,3 -12.2277,6.66666 -12.64332,7.24956 -19.15066,8.42387 -25.09542,4.52871 -5.27094,-3.45365 -8.64324,-10.13407 -8.64324,-17.12199 0,-7.84159 3.11527,-11.2345 17.66667,-19.24111 5.68329,-3.12715 10.33329,-5.87572 10.33329,-6.10796 0,-0.23223 -8.18952,-14.1402 -18.19898,-30.9066 -21.32226,-35.71598 -23.06619,-39.25979 -23.10503,-46.95104 -0.0244,-4.83866 0.72212,-6.5514 4.50405,-10.33334 3.48446,-3.48445 5.64918,-4.53333 9.35607,-4.53333 4.9412,0 122.40819,26.36063 135.21519,30.34348 8.2121,2.55387 13.9683,8.25261 16.3435,16.18029 1.9934,6.65344 0.7372,11.62751 -4.0439,16.01262 -2.077,1.90498 -20.6426,13.31497 -41.2569,25.35552 -20.6144,12.04054 -37.4806,22.00526 -37.4806,22.1438 0,0.13853 2.1,4.28077 4.6666,9.20497 5.5999,10.74348 6.125,17.5999 1.6667,21.7614 -4.5218,4.22072 -9.0098,4.79529 -13.8927,1.77856 z m 19.2297,-80.01007 c 13.3854,-7.53712 24.6158,-14.15489 24.9566,-14.70618 0.3407,-0.5513 -16.611,-4.74054 -37.6704,-9.30943 -21.0594,-4.56891 -40.2351,-8.8082 -42.6127,-9.42065 -2.3776,-0.61247 -4.5322,-0.71324 -4.78805,-0.22394 -0.25585,0.4893 6.40695,12.1644 14.80615,25.9447 14.7005,24.11844 15.3779,24.9871 18.1214,23.2372 1.5675,-0.99982 13.8017,-7.98458 27.187,-15.5217 z m -672.83322,24.50156 c -6.31286,-5.31192 -10.44493,-15.55161 -13.42646,-33.27213 -3.79643,-22.5638 -6.74396,-48.95563 -6.74396,-60.38448 0,-31.41537 -16.9118,-49.846 -37.74931,-41.13952 -7.31672,3.05712 -16.3083,13.08506 -19.63316,21.89603 -4.23313,11.21793 -3.08828,19.6069 4.06806,29.80894 6.62656,9.44683 8.19394,14.26959 6.56037,20.18592 -1.8116,6.56107 -9.24948,13.19268 -14.97877,13.3551 -8.66142,0.2455 -18.40902,-9.21472 -22.77328,-22.10192 -2.50815,-7.40628 -2.82051,-22.36334 -0.65496,-31.36298 3.95926,-16.45409 20.73397,-43.5991 33.312,-53.90585 21.94445,-17.98182 48.08509,-18.44564 64.27211,-1.14038 10.2034,10.90825 13.16104,21.64614 16.19283,58.78914 2.60039,31.85784 5.93317,52.01795 8.59516,51.99244 0.43392,-0.004 9.48895,-14.76343 20.12228,-32.79839 23.9438,-40.6105 29.83179,-46.62937 40.59465,-41.49691 5.6436,2.69125 8.2993,8.84792 6.43576,14.9199 -1.7785,5.79488 -55.69898,97.56599 -60.22546,102.502 -7.58607,8.2724 -17.11091,9.92284 -23.96786,4.15309 z m 502.2848,-119.97089 c -5.11213,-2.77664 -9.48554,-10.55873 -9.48554,-16.87868 0,-4.11636 0.88241,-6.21698 3.84849,-9.16156 3.08672,-3.06434 80.06167,-40.93841 95.0656,-46.77524 4.0188,-1.56338 3.57361,-1.98022 -11.0618,-10.35736 -22.49204,-12.87416 -31.39576,-21.67124 -29.51567,-29.16213 1.14891,-4.57761 3.10423,-6.93489 6.97222,-8.40549 4.29457,-1.6328 7.73086,-0.012 21.26213,10.02616 15.5762,11.55568 29.25653,18.55449 44.57659,22.80528 19.155,5.31484 19.9407,5.7332 22.7676,12.12384 2.7821,6.28945 2.2908,11.00665 -1.504,14.44092 -2.4468,2.21434 -37.33388,19.73394 -94.68342,47.54813 -34.78104,16.86861 -39.89356,18.33067 -48.2422,13.79613 z M 138.22222,360.44443 c -1.35153,-1.35152 -1.06109,-5.51396 0.4499,-6.44781 1.20202,-0.7429 77.25827,-12.72633 161.32787,-25.41884 17.23334,-2.60183 48.43333,-7.40724 69.33333,-10.67871 20.9,-3.27145 57.8,-8.97333 82,-12.67084 24.2,-3.6975 80.83853,-12.38648 125.86341,-19.30882 45.02487,-6.92235 82.99369,-12.58608 84.37517,-12.58608 1.38148,0 2.87499,0.94652 3.31892,2.10338 1.63942,4.27226 -3.00582,6.10412 -23.72636,9.35655 -49.30923,7.73991 -155.60974,24.16905 -223.83114,34.59396 -40.7,6.21937 -98.89999,15.18551 -129.33333,19.92475 -143.36745,22.32593 -147.93926,22.97098 -149.77777,21.13246 z M 1198,354.51888 c -49.5201,-6.58137 -82.5676,-11.1841 -142.6667,-19.87013 -35.9333,-5.1934 -71.63332,-10.28721 -79.33332,-11.31961 -24.66551,-3.30709 -173.74764,-24.35247 -221.79311,-31.30971 -25.55286,-3.70018 -47.63927,-7.35886 -49.0809,-8.13041 -3.89457,-2.08431 -2.73557,-7.11329 1.75917,-7.63317 4.03111,-0.46626 46.7164,5.52013 197.7815,27.73778 14.66667,2.15708 51.26667,7.54028 81.33334,11.96268 30.06662,4.4224 79.86662,11.6633 110.66662,16.09088 74.3717,10.69113 122.2154,18.47164 124.3185,20.21712 1.9367,1.60729 -0.1266,5.20048 -2.815,4.90223 -0.8269,-0.0917 -9.9035,-1.28318 -20.1701,-2.64766 z M 680.76389,263.24009 c -1.15128,-1.15128 -2.40367,-3.40128 -2.78309,-5 -0.37942,-1.59872 -0.23032,-48.32734 0.33133,-103.84137 1.07271,-106.027424 1.09905,-106.430479 6.72455,-102.895692 3.3154,2.083231 3.95254,21.15505 4.13913,123.896972 0.1196,65.85939 -0.22756,87.11839 -1.44249,88.33333 -2.17254,2.17253 -4.46598,2.01021 -6.96943,-0.49324 z m -265.61902,-3.91706 c -0.42428,-1.10566 0.15796,-3.4287 1.29387,-5.16232 1.13592,-1.73362 16.80188,-18.83058 34.81328,-37.99326 18.01138,-19.16268 32.74797,-35.05649 32.74797,-35.31957 0,-0.26308 -5.55,1.75445 -12.33333,4.4834 -17.08756,6.87437 -32.69307,12.00205 -36.52687,12.00205 -5.44304,0 -5.52325,-3.97677 -0.17288,-8.5716 3.39683,-2.91717 10.91676,-6.14792 26.14368,-11.23197 13.68315,-4.56862 28.8558,-10.92616 42.16254,-17.66667 21.9884,-11.13819 30.06019,-13.26312 30.06019,-7.91349 0,2.81096 -0.50967,3.40686 -40.6052,47.47552 -41.31937,45.41378 -51.91205,55.6497 -61.11148,59.05323 -9.0915,3.36363 -15.38138,3.68616 -16.47177,0.84468 z m 467.46074,-8.60746 c -4.39182,-2.32228 -8.6872,-6.39078 -20.10176,-19.03992 -4.96484,-5.50183 -3.97698,-5.29663 -43.14611,-8.96275 -8.05323,-0.75376 -17.41881,-2.29269 -20.81239,-3.41987 -7.85844,-2.61014 -17.21204,-10.48213 -17.21204,-14.48564 0,-5.23645 11.67758,-55.47899 13.36808,-57.51593 2.46475,-2.96984 10.65856,-2.34837 18.1307,1.37515 5.59421,2.78772 10.79474,8.22304 31.77428,33.20881 24.90642,29.66252 25.12914,29.88177 31.23944,30.75285 11.03756,1.5735 16.11151,3.41575 20.83834,7.56595 2.55704,2.24511 4.64916,5.21987 4.64916,6.61056 0,2.20716 -1.03752,2.52855 -8.16263,2.52855 -9.28305,0 -9.38079,-1.00432 1.16263,11.9459 3.11667,3.82812 5.66667,8.10635 5.66667,9.50716 0,2.15783 -0.96756,2.53794 -6.33334,2.488 -3.51488,-0.0327 -8.43725,-1.17142 -11.06103,-2.55882 z m -40.9155,-44.51748 c -14.5138,-18.15983 -29.09538,-35.53143 -29.8248,-35.53143 -1.41442,0 -8.78153,34.19492 -7.61782,35.35863 0.81985,0.81985 37.47568,4.23392 38.77596,3.61153 0.5629,-0.26943 -0.0371,-1.81687 -1.33334,-3.43873 z m -317.32339,40.58486 c -6.22513,-1.59129 -10.87288,-5.01249 -11.79371,-8.68133 -2.5356,-10.10264 15.1985,-29.84997 36.26664,-40.38377 7.23819,-3.619 14.66034,-7.009 16.49367,-7.53332 l 3.33333,-0.95332 -3,-2.11157 c -2.13978,-1.5061 -3,-3.45286 -3,-6.78931 0,-4.02493 1.28947,-5.9444 9.23966,-13.75392 16.02472,-15.7412 40.41337,-25.18176 65.15989,-25.22261 16.37278,-0.0271 21.60045,2.58233 21.60045,10.78174 0,3.7883 -5.73407,12.23488 -11.57379,17.04879 -2.80108,2.30904 -9.72737,6.60948 -15.39176,9.55653 l -10.29889,5.35828 4.22828,3.77796 c 4.11121,3.67338 4.18329,3.92807 2.60379,9.19999 -5.65364,18.87017 -37.99229,40.56158 -70.92308,47.57221 -11.53817,2.45636 -27.61005,3.49725 -32.94448,2.13365 z m 50.33632,-20.30904 c 11.92217,-5.70865 22.13985,-14.42064 25.36712,-21.62897 2.81467,-6.28676 2.32183,-8.0829 -2.79996,-10.20442 -8.24411,-3.41482 -29.88085,3.78946 -41.25555,13.73665 -10.80949,9.45292 -14.9658,19.00877 -9.68133,22.2586 4.62367,2.84344 17.76612,0.91544 28.36972,-4.16186 z m 38.31233,-49.42783 c 4.34092,-1.59799 9.55107,-5.05235 13.66667,-9.06107 9.44508,-9.1998 8.67477,-14.65168 -2.07015,-14.65168 -12.17237,0 -29.24393,8.60512 -34.40512,17.34231 -5.9054,9.99705 4.81972,12.99257 22.8086,6.37044 z"
       id="path825"
       inkscape:connector-curvature="0" />
    <path
       style="opacity:1;vector-effect:none;fill:#000000;fill-opacity:0.38823529;stroke:none;stroke-width:1.88976383;stroke-linecap:butt;stroke-linejoin:miter;stroke-miterlimit:4;stroke-dasharray:none;stroke-dashoffset:0;stroke-opacity:1"
       d="m 119.01592,411.90231 15.31624,48.9324 c 0,0 169.90663,400.02682 166.81228,414.37334 -3.09435,14.34652 -40.78913,50.07216 -40.78913,50.07216 0,0 46.13391,-14.34652 54.57304,-9.28304 8.43913,5.06348 300.99562,370.33713 313.37301,378.49493 12.37739,8.1578 51.19738,30.0996 73.13912,28.4117 21.94173,-1.6878 -15.8937,7.4546 -15.8937,7.4546 l -41.6016,-10.8198 -497.67829,-290.014 -27.05206,-22.2781 -4.77389,-65.24321 z"
       id="path831"
       inkscape:connector-curvature="0" />
    <path
       style="opacity:1;vector-effect:none;fill:#000000;fill-opacity:0.09803922;stroke:none;stroke-width:1.88976383;stroke-linecap:butt;stroke-linejoin:miter;stroke-miterlimit:4;stroke-dasharray:none;stroke-dashoffset:0;stroke-opacity:1"
       d="m 162.24408,381.88313 c 7.95741,-13.5276 465.0567,-79.16705 468.23929,-75.58663 3.1826,3.58042 -265.25965,501.60913 -290.80962,493.70005 -27.34876,-8.4659 -185.38708,-404.58582 -177.42967,-418.11342 z"
       id="path833"
       inkscape:connector-curvature="0"
       sodipodi:nodetypes="zcsz" />
    <path
       style="opacity:1;vector-effect:none;fill:#ffffff;fill-opacity:0.23529412;stroke:none;stroke-width:1.88976383;stroke-linecap:butt;stroke-linejoin:miter;stroke-miterlimit:4;stroke-dasharray:none;stroke-dashoffset:0;stroke-opacity:1"
       d="m 732.81107,77.041416 c 0,0 -14.71951,0 -17.10645,7.160839 -2.38695,7.160839 -9.14996,167.881885 -1.5913,173.053595 7.55866,5.17172 426.84348,77.25732 438.80018,63.25408 C 1162.0136,309.85226 732.81107,77.041416 732.81107,77.041416 Z"
       id="path837"
       inkscape:connector-curvature="0"
       sodipodi:nodetypes="ccssc" />
    <path
       style="opacity:1;vector-effect:none;fill:#ffffff;fill-opacity:0.15294118;stroke:none;stroke-width:1.88976383;stroke-linecap:butt;stroke-linejoin:miter;stroke-miterlimit:4;stroke-dasharray:none;stroke-dashoffset:0;stroke-opacity:1"
       d="m 751.08252,321.97556 c 20.52741,-14.31136 447.55518,45.8526 450.36818,55.13564 2.8131,9.28305 -163.1565,445.30473 -170.1891,442.77299 -7.0326,-2.53174 -300.70649,-483.59727 -280.17908,-497.90863 z"
       id="path839"
       inkscape:connector-curvature="0"
       sodipodi:nodetypes="zcsz" />
    <path
       style="opacity:1;vector-effect:none;fill:#ffffff;fill-opacity:0.24313725;stroke:none;stroke-width:1.88976383;stroke-linecap:butt;stroke-linejoin:miter;stroke-miterlimit:4;stroke-dasharray:none;stroke-dashoffset:0;stroke-opacity:1"
       d="m 1231.9964,966.65678 c -6.9187,7.06638 -159.4996,-78.48391 -159.7809,-92.26782 -0.2813,-13.78391 148.3547,-429.06452 156.1805,-425.5169 9.5277,4.31918 17.3917,503.69899 3.6004,517.78472 z"
       id="path841"
       inkscape:connector-curvature="0"
       sodipodi:nodetypes="ssss" />
    <path
       style="opacity:1;vector-effect:none;fill:#000000;fill-opacity:0.07843137;stroke:none;stroke-width:1.88976383;stroke-linecap:butt;stroke-linejoin:miter;stroke-miterlimit:4;stroke-dasharray:none;stroke-dashoffset:0;stroke-opacity:1"
       d="m 786.52706,1243.6897 c 1.19347,0.9946 398.42114,-226.7599 401.60374,-233.9207 3.1826,-7.1609 -140.432,-90.3062 -151.1733,-87.91925 -10.7413,2.38694 -254.6076,317.46385 -250.43044,321.83995 z"
       id="path843"
       inkscape:connector-curvature="0" />
    <path
       style="opacity:1;vector-effect:none;fill:#000000;fill-opacity:0.23921569;stroke:none;stroke-width:1.88976383;stroke-linecap:butt;stroke-linejoin:miter;stroke-miterlimit:4;stroke-dasharray:none;stroke-dashoffset:0;stroke-opacity:1"
       d="M 696.42569,1275.624 955.80717,938.06987 c 0,0 19.7089,-27.30923 -14.7195,-27.44988 -24.8638,-0.10158 -545.01938,0.39783 -545.01938,0.39783 0,0 -18.10101,-1.5913 -5.17172,14.91841 12.9293,16.50971 281.65966,350.48337 281.65966,350.48337 0,0 12.13365,14.5206 23.86946,-0.7956 z"
       id="path847"
       inkscape:connector-curvature="0"
       sodipodi:nodetypes="ccscscc" />
  </g>
</svg>
