<?xml version="1.0" encoding="UTF-8" standalone="no"?>
<!-- Created with Inkscape (http://www.inkscape.org/) -->

<svg
   version="1.1"
   id="svg815"
   width="1365.3333"
   height="1365.3333"
   viewBox="0 0 1365.3333 1365.3333"
   sodipodi:docname="gayhammer.svg"
   inkscape:version="1.1.1 (3bf5ae0d25, 2021-09-20)"
   inkscape:export-filename="C:\Users\Keira\Documents\GitHub\huntress\data\gayhammer\aro.png"
   inkscape:export-xdpi="72.000008"
   inkscape:export-ydpi="72.000008"
   xmlns:inkscape="http://www.inkscape.org/namespaces/inkscape"
   xmlns:sodipodi="http://sodipodi.sourceforge.net/DTD/sodipodi-0.dtd"
   xmlns="http://www.w3.org/2000/svg"
   xmlns:svg="http://www.w3.org/2000/svg"
   xmlns:rdf="http://www.w3.org/1999/02/22-rdf-syntax-ns#"
   xmlns:cc="http://creativecommons.org/ns#"
   xmlns:dc="http://purl.org/dc/elements/1.1/">
  <metadata
     id="metadata821">
    <rdf:RDF>
      <cc:Work
         rdf:about="">
        <dc:format>image/svg+xml</dc:format>
        <dc:type
           rdf:resource="http://purl.org/dc/dcmitype/StillImage" />
      </cc:Work>
    </rdf:RDF>
  </metadata>
  <defs
     id="defs819" />
  <sodipodi:namedview
     pagecolor="#ffffff"
     bordercolor="#666666"
     borderopacity="1"
     objecttolerance="10"
     gridtolerance="10"
     guidetolerance="10"
     inkscape:pageopacity="0"
     inkscape:pageshadow="2"
     inkscape:window-width="2560"
     inkscape:window-height="1387"
     id="namedview817"
     showgrid="false"
     inkscape:zoom="0.0625"
     inkscape:cx="-5960"
     inkscape:cy="296"
     inkscape:window-x="1912"
     inkscape:window-y="-8"
     inkscape:window-maximized="1"
     inkscape:current-layer="g851"
     borderlayer="true"
     inkscape:measure-start="-738.143,1125.22"
     inkscape:measure-end="-580.612,481.593"
     inkscape:pagecheckerboard="0" />
  <g
     style="display:inline"
     inkscape:label="flag (30)"
     id="g851"
     inkscape:groupmode="layer">
    <g
       clip-path="none"
       style="stroke-width:0.860716"
       id="g1063"
       transform="matrix(-1.2317745,0.7111653,-0.47451481,-0.82188375,-3974.1178,-2352.68)">
      <rect
         style="opacity:1;fill:#ffd900;fill-opacity:1;fill-rule:nonzero;stroke:none;stroke-width:1.62655;stroke-linejoin:bevel;stroke-miterlimit:4;stroke-dasharray:none;stroke-dashoffset:0;stroke-opacity:1;paint-order:markers stroke fill"
         id="rect1053"
         width="1359.2625"
         height="339.81561"
         x="-1550.5493"
         y="613.68817" />
      <rect
         y="273.87256"
         x="-1550.5493"
         height="339.81561"
         width="1359.2625"
         id="rect1055"
         style="opacity:1;fill:#f0f0f0;fill-opacity:1;fill-rule:nonzero;stroke:none;stroke-width:1.62655;stroke-linejoin:bevel;stroke-miterlimit:4;stroke-dasharray:none;stroke-dashoffset:0;stroke-opacity:1;paint-order:markers stroke fill" />
      <rect
         style="opacity:1;fill:#9c63c8;fill-opacity:1;fill-rule:nonzero;stroke:none;stroke-width:1.62655;stroke-linejoin:bevel;stroke-miterlimit:4;stroke-dasharray:none;stroke-dashoffset:0;stroke-opacity:1;paint-order:markers stroke fill"
         id="rect1057"
         width="1359.2625"
         height="339.81561"
         x="-1550.5493"
         y="-65.943054" />
      <rect
         y="-405.75867"
         x="-1550.5493"
         height="339.81561"
         width="1359.2625"
         id="rect1059"
         style="opacity:1;fill:#505050;fill-opacity:1;fill-rule:nonzero;stroke:none;stroke-width:1.62655;stroke-linejoin:bevel;stroke-miterlimit:4;stroke-dasharray:none;stroke-dashoffset:0;stroke-opacity:1;paint-order:markers stroke fill" />
    </g>
    <g
       clip-path="none"
       style="stroke-width:1.07622"
       id="g1176"
       transform="matrix(0.9851177,-0.56875793,0.37949554,0.65730555,-2069.7545,-1343.4145)"
       inkscape:export-filename="C:\Users\Keira\Documents\GitHub\huntress\data\gayhammer\trans.png"
       inkscape:export-xdpi="72.000008"
       inkscape:export-ydpi="72.000008">
      <rect
         style="opacity:1;fill:#505050;fill-opacity:1;fill-rule:nonzero;stroke:none;stroke-width:2.03381;stroke-linejoin:bevel;stroke-miterlimit:4;stroke-dasharray:none;stroke-dashoffset:0;stroke-opacity:1;paint-order:markers stroke fill"
         id="rect1166"
         width="1359.2625"
         height="339.81561"
         x="-1550.5493"
         y="613.68817" />
      <rect
         y="273.87256"
         x="-1550.5493"
         height="339.81561"
         width="1359.2625"
         id="rect1168"
         style="opacity:1;fill:#909090;fill-opacity:1;fill-rule:nonzero;stroke:none;stroke-width:2.03381;stroke-linejoin:bevel;stroke-miterlimit:4;stroke-dasharray:none;stroke-dashoffset:0;stroke-opacity:1;paint-order:markers stroke fill" />
      <rect
         style="opacity:1;fill:#f0f0f0;fill-opacity:1;fill-rule:nonzero;stroke:none;stroke-width:2.03381;stroke-linejoin:bevel;stroke-miterlimit:4;stroke-dasharray:none;stroke-dashoffset:0;stroke-opacity:1;paint-order:markers stroke fill"
         id="rect1170"
         width="1359.2625"
         height="339.81561"
         x="-1550.5493"
         y="-65.943054" />
      <rect
         y="-405.75867"
         x="-1550.5493"
         height="339.81561"
         width="1359.2625"
         id="rect1172"
         style="opacity:1;fill:#a8d47a;fill-opacity:1;fill-rule:nonzero;stroke:none;stroke-width:2.03381;stroke-linejoin:bevel;stroke-miterlimit:4;stroke-dasharray:none;stroke-dashoffset:0;stroke-opacity:1;paint-order:markers stroke fill" />
      <rect
         y="-745.57428"
         x="-1550.5493"
         height="339.81561"
         width="1359.2625"
         id="rect1174"
         style="opacity:1;fill:#3aa740;fill-opacity:1;fill-rule:nonzero;stroke:none;stroke-width:2.03381;stroke-linejoin:bevel;stroke-miterlimit:4;stroke-dasharray:none;stroke-dashoffset:0;stroke-opacity:1;paint-order:markers stroke fill" />
    </g>
    <circle
       style="fill:#43ff30;fill-opacity:1;stroke:#000000;stroke-width:2.976;stroke-linecap:round;paint-order:stroke fill markers"
       id="circle65589"
       cx="683.61713"
       cy="680.31128"
       r="661.78259" />
    <g
       transform="matrix(1.2059206,-0.69623856,0.26101209,0.4520862,53.143909,-3511.8772)"
       id="g972"
       style="stroke-width:1.17289"
       clip-path="none">
      <rect
         y="613.68817"
         x="-1550.5493"
         height="339.81561"
         width="1359.2625"
         id="rect962"
         style="opacity:1;fill:#f0f0f0;fill-opacity:1;fill-rule:nonzero;stroke:none;stroke-width:2.2165;stroke-linejoin:bevel;stroke-miterlimit:4;stroke-dasharray:none;stroke-dashoffset:0;stroke-opacity:1;paint-order:markers stroke fill" />
      <rect
         style="opacity:1;fill:#b9f484;fill-opacity:1;fill-rule:nonzero;stroke:none;stroke-width:2.2165;stroke-linejoin:bevel;stroke-miterlimit:4;stroke-dasharray:none;stroke-dashoffset:0;stroke-opacity:1;paint-order:markers stroke fill"
         id="rect964"
         width="1359.2625"
         height="339.81561"
         x="-1550.5493"
         y="273.87256" />
      <rect
         y="-65.943054"
         x="-1550.5493"
         height="339.81561"
         width="1359.2625"
         id="rect966"
         style="opacity:1;fill:#f0f0f0;fill-opacity:1;fill-rule:nonzero;stroke:none;stroke-width:2.2165;stroke-linejoin:bevel;stroke-miterlimit:4;stroke-dasharray:none;stroke-dashoffset:0;stroke-opacity:1;paint-order:markers stroke fill" />
      <rect
         style="opacity:1;fill:#909090;fill-opacity:1;fill-rule:nonzero;stroke:none;stroke-width:2.2165;stroke-linejoin:bevel;stroke-miterlimit:4;stroke-dasharray:none;stroke-dashoffset:0;stroke-opacity:1;paint-order:markers stroke fill"
         id="rect968"
         width="1359.2625"
         height="339.81561"
         x="-1550.5493"
         y="-405.75867" />
      <rect
         style="opacity:1;fill:#505050;fill-opacity:1;fill-rule:nonzero;stroke:none;stroke-width:2.2165;stroke-linejoin:bevel;stroke-miterlimit:4;stroke-dasharray:none;stroke-dashoffset:0;stroke-opacity:1;paint-order:markers stroke fill"
         id="rect974"
         width="1359.2625"
         height="339.81561"
         x="-1550.5493"
         y="-745.57428" />
      <rect
         style="opacity:1;fill:#505050;fill-opacity:1;fill-rule:nonzero;stroke:none;stroke-width:2.2165;stroke-linejoin:bevel;stroke-miterlimit:4;stroke-dasharray:none;stroke-dashoffset:0;stroke-opacity:1;paint-order:markers stroke fill"
         id="rect1189"
         width="1359.2625"
         height="339.81561"
         x="-1550.5493"
         y="1293.3195" />
      <rect
         y="953.50378"
         x="-1550.5493"
         height="339.81561"
         width="1359.2625"
         id="rect1191"
         style="opacity:1;fill:#909090;fill-opacity:1;fill-rule:nonzero;stroke:none;stroke-width:2.2165;stroke-linejoin:bevel;stroke-miterlimit:4;stroke-dasharray:none;stroke-dashoffset:0;stroke-opacity:1;paint-order:markers stroke fill" />
    </g>
    <g
       id="g904"
       transform="matrix(0.99058449,-0.57191423,0.32223526,0.55812784,-1564.8384,34.529159)"
       style="stroke-width:1.16471"
       clip-path="none">
      <rect
         y="953.50378"
         x="-1550.5493"
         height="339.81561"
         width="1359.2625"
         id="rect871"
         style="opacity:1;fill:#004cff;fill-opacity:1;fill-rule:nonzero;stroke:none;stroke-width:2.20103;stroke-linejoin:bevel;stroke-miterlimit:4;stroke-dasharray:none;stroke-dashoffset:0;stroke-opacity:1;paint-order:markers stroke fill" />
      <rect
         style="opacity:1;fill:#008121;fill-opacity:1;fill-rule:nonzero;stroke:none;stroke-width:2.20103;stroke-linejoin:bevel;stroke-miterlimit:4;stroke-dasharray:none;stroke-dashoffset:0;stroke-opacity:1;paint-order:markers stroke fill"
         id="rect888"
         width="1359.2625"
         height="339.81561"
         x="-1550.5493"
         y="613.68817" />
      <rect
         y="273.87256"
         x="-1550.5493"
         height="339.81561"
         width="1359.2625"
         id="rect890"
         style="opacity:1;fill:#ffee00;fill-opacity:1;fill-rule:nonzero;stroke:none;stroke-width:2.20103;stroke-linejoin:bevel;stroke-miterlimit:4;stroke-dasharray:none;stroke-dashoffset:0;stroke-opacity:1;paint-order:markers stroke fill" />
      <rect
         style="opacity:1;fill:#ff8d00;fill-opacity:1;fill-rule:nonzero;stroke:none;stroke-width:2.20103;stroke-linejoin:bevel;stroke-miterlimit:4;stroke-dasharray:none;stroke-dashoffset:0;stroke-opacity:1;paint-order:markers stroke fill"
         id="rect892"
         width="1359.2625"
         height="339.81561"
         x="-1550.5493"
         y="-65.943054" />
      <rect
         y="-405.75867"
         x="-1550.5493"
         height="339.81561"
         width="1359.2625"
         id="rect894"
         style="opacity:1;fill:#e50000;fill-opacity:1;fill-rule:nonzero;stroke:none;stroke-width:2.20103;stroke-linejoin:bevel;stroke-miterlimit:4;stroke-dasharray:none;stroke-dashoffset:0;stroke-opacity:1;paint-order:markers stroke fill" />
      <rect
         style="opacity:1;fill:#760188;fill-opacity:1;fill-rule:nonzero;stroke:none;stroke-width:2.20103;stroke-linejoin:bevel;stroke-miterlimit:4;stroke-dasharray:none;stroke-dashoffset:0;stroke-opacity:1;paint-order:markers stroke fill"
         id="rect896"
         width="1359.2625"
         height="339.81561"
         x="-1550.5493"
         y="1293.3193" />
    </g>
    <g
       transform="matrix(1.6095564,-0.92927775,0.62004721,1.0739532,2984.5747,-4820.9818)"
       id="g1031"
       style="stroke-width:0.658696"
       clip-path="none">
      <rect
         style="opacity:1;fill:#1bb3ff;fill-opacity:1;fill-rule:nonzero;stroke:none;stroke-width:1.24478;stroke-linejoin:bevel;stroke-miterlimit:4;stroke-dasharray:none;stroke-dashoffset:0;stroke-opacity:1;paint-order:markers stroke fill"
         id="rect1025"
         width="1359.2625"
         height="339.81561"
         x="-1550.5493"
         y="273.87256" />
      <rect
         y="-65.943054"
         x="-1550.5493"
         height="339.81561"
         width="1359.2625"
         id="rect1027"
         style="opacity:1;fill:#ffd900;fill-opacity:1;fill-rule:nonzero;stroke:none;stroke-width:1.24478;stroke-linejoin:bevel;stroke-miterlimit:4;stroke-dasharray:none;stroke-dashoffset:0;stroke-opacity:1;paint-order:markers stroke fill" />
      <rect
         style="opacity:1;fill:#ff1b8d;fill-opacity:1;fill-rule:nonzero;stroke:none;stroke-width:1.24478;stroke-linejoin:bevel;stroke-miterlimit:4;stroke-dasharray:none;stroke-dashoffset:0;stroke-opacity:1;paint-order:markers stroke fill"
         id="rect1029"
         width="1359.2625"
         height="339.81561"
         x="-1550.5493"
         y="-405.75867" />
    </g>
  </g>
  <g
     inkscape:groupmode="layer"
     id="layer2"
     inkscape:label="lines/shade"
     style="display:inline"
     sodipodi:insensitive="true">
    <g
       id="g45116"
       transform="translate(-3636.7487,-1530.5075)">
      <path
         id="path2401"
         style="fill:#656565;fill-opacity:1;stroke:none;stroke-width:2.976;stroke-linecap:round;paint-order:stroke fill markers"
         d="m 4319.7773,1552.8008 v 280.8867 l 307.5293,89.6426 45.2559,292.7422 -53.7402,255.9726 -197.9903,121.6231 -101.0547,17.2343 v 247.1485 a 652.62598,652.62598 0 0 0 652.625,-652.625 652.62598,652.62598 0 0 0 -652.625,-652.625 z" />
      <path
         style="fill:#a5a39d;stroke-width:0.999999"
         d="m 4047.2061,2182.5399 c -6.9576,-3.7785 -10.2344,-13.7322 -7.2956,-22.1622 1.2159,-3.4877 2.5179,-6.0338 2.8939,-5.6578 0.3759,0.3757 3.7726,7.4622 7.5482,15.7474 7.0837,15.5442 6.6081,17.3699 -3.1465,12.0726 z m 20.1435,-6.9384 c -1.025,-2.6069 -4.1308,-9.8007 -6.9017,-15.9864 -5.388,-12.0278 -4.482,-13.5607 5.3635,-9.0747 9.0956,4.1441 12.9301,20.2723 6.3776,26.8248 -2.664,2.664 -3.1714,2.479 -4.8394,-1.7637 z m 84.3242,-85.9015 c -8.2943,-5.0571 -14.1753,-14.8909 -14.043,-23.4821 l 0.1056,-6.8459 4.6955,10.3345 c 5.9394,13.0719 14.8704,17.7928 26.8631,14.1997 13.1459,-3.9385 18.2059,-18.2064 12.1693,-34.314 -1.4193,-3.7871 -1.3283,-3.7811 2.8572,0.1937 5.9338,5.6349 8.0285,16.1427 4.9836,24.9993 -3.1929,9.2877 -6.4009,12.9757 -14.079,16.1852 -8.7756,3.6682 -16.0999,3.2731 -23.5521,-1.2704 z m 70.0021,-57.2798 c -7.6959,-3.8941 -13.7782,-14.5284 -13.557,-23.7035 l 0.1937,-8.0235 2.7129,8.6463 c 5.2238,16.649 17.8765,23.495 31.4554,17.0198 9.6771,-4.6147 13.5693,-14.6574 10.6246,-27.4144 -2.7421,-11.8789 -1.6129,-13.3907 3.6066,-4.8292 7.289,11.9562 4.27,27.8904 -6.9578,36.7222 -5.9848,4.7076 -20.3068,5.5146 -28.0782,1.5823 z"
         id="path940"
         sodipodi:nodetypes="ssscssccssscccssssssssccsssssss" />
      <circle
         style="fill:#2a2a2a;fill-opacity:1;stroke:none;stroke-width:2.976;stroke-linecap:round;paint-order:stroke fill markers"
         id="path44286"
         cx="4171.2227"
         cy="2288.9045"
         r="97.580734" />
      <path
         style="fill:#656565;stroke-width:0.999999"
         d="m 4323.3272,2831.1217 v -17.1675 l 15.3475,-1.0519 c 17.4458,-1.1959 24.5183,-4.1873 33.1545,-14.0235 7.7147,-8.7864 10.1524,-17.7544 10.1659,-37.3993 l 0.02,-15.7305 21.0265,-3.3253 c 11.5647,-1.8292 31.5888,-5.9127 44.4982,-9.0749 12.9093,-3.162 24.0501,-5.149 24.7572,-4.4156 0.707,0.7335 3.6541,7.0548 6.5491,14.0474 6.9652,16.824 13.4576,25.0699 23.2335,29.5094 13.8021,6.2676 22.3459,4.972 52.9764,-8.034 29.5087,-12.5296 37.445,-18.3778 42.9936,-31.6814 4.5207,-10.8386 3.7653,-17.7592 -4.0443,-37.0483 -3.8928,-9.6145 -6.7534,-17.7206 -6.3569,-18.0134 0.3963,-0.2928 11.2828,-7.3936 24.1921,-15.7796 12.9094,-8.3859 27.2892,-18.3478 31.955,-22.1375 l 8.4834,-6.8905 14.0101,13.8586 c 15.207,15.0421 20.6853,18.0009 33.2081,17.9352 13.1834,-0.068 22.5214,-6.0324 44.7824,-28.5981 21.8442,-22.1443 26.9711,-30.4203 26.9711,-43.5393 0,-12.1071 -3.0767,-17.7173 -17.9782,-32.782 l -13.8586,-14.0101 6.8369,-8.4834 c 8.7169,-10.8161 28.4148,-40.3537 36.6365,-54.9375 3.4873,-6.1855 7.0765,-11.7015 7.976,-12.2576 0.8998,-0.5559 8.3201,1.6446 16.49,4.8899 24.1301,9.5856 42.0498,7.2857 53.324,-6.8437 5.0599,-6.3415 24.4638,-52.2653 26.5187,-62.7631 1.741,-8.8938 -2.1367,-22.9149 -8.458,-30.5838 -4.2094,-5.1068 -10.5592,-8.9922 -23.3817,-14.3071 -9.6816,-4.0128 -17.6029,-7.8471 -17.6029,-8.5204 0,-0.6732 2.1913,-10.89 4.8694,-22.7038 2.6783,-11.814 5.8923,-28.7415 7.1424,-37.6166 l 2.2728,-16.1367 15.8401,-0.02 c 19.7543,-0.019 28.7114,-2.4412 37.5093,-10.1659 12.738,-11.1832 13.5384,-14.282 13.5384,-52.4131 0,-38.1311 -0.8004,-41.2299 -13.5384,-52.4139 -8.7863,-7.7147 -17.7544,-10.1524 -37.3993,-10.1659 l -15.7305,-0.02 -3.3253,-21.0266 c -1.829,-11.5646 -5.9127,-31.5888 -9.0749,-44.4981 -3.162,-12.9094 -5.149,-24.0501 -4.4155,-24.757 0.7334,-0.7071 7.0547,-3.6543 14.0473,-6.5493 16.824,-6.9652 25.0699,-13.4574 29.5094,-23.2335 6.2677,-13.8021 4.972,-22.3459 -8.0339,-52.9763 -12.5297,-29.5086 -18.3779,-37.4451 -31.6815,-42.9938 -10.8386,-4.5206 -17.7592,-3.7652 -37.0483,4.0446 -9.6145,3.8925 -17.7206,6.7531 -18.0134,6.3568 -0.2928,-0.3964 -7.3936,-11.2829 -15.7795,-24.1923 -8.386,-12.9093 -18.3479,-27.289 -22.1376,-31.9549 l -6.8905,-8.4832 13.8586,-14.0104 c 15.0421,-15.2068 18.0009,-20.6852 17.9352,-33.2081 -0.068,-13.1834 -6.0324,-22.5213 -28.5981,-44.7821 -22.1442,-21.8452 -30.4205,-26.9721 -43.5393,-26.9721 -12.107,0 -17.7173,3.0769 -32.782,17.9782 l -14.0101,13.8586 -8.4834,-6.8369 c -10.8161,-8.7169 -40.3536,-28.4148 -54.9375,-36.6365 -6.1855,-3.4873 -11.7015,-7.0765 -12.2576,-7.9761 -0.5559,-0.8997 1.6446,-8.32 4.8899,-16.4899 9.5856,-24.1301 7.2858,-42.0498 -6.8437,-53.324 -6.3414,-5.0599 -52.2653,-24.4638 -62.7631,-26.5187 -8.8938,-1.741 -22.9151,2.1367 -30.5838,8.4579 -5.1068,4.2095 -8.9922,10.5593 -14.3071,23.3818 -4.0128,9.6816 -7.8471,17.6029 -8.5204,17.6029 -0.6732,0 -10.89,-2.1913 -22.7038,-4.8694 -11.814,-2.6783 -28.7415,-5.8923 -37.6166,-7.1424 l -16.1367,-2.2728 -0.02,-15.8402 c -0.02,-19.7542 -2.4412,-28.7113 -10.1659,-37.5092 -8.6363,-9.8362 -15.7089,-12.8276 -33.1547,-14.0235 l -15.3465,-1.0519 v -17.1673 -17.1675 l 19.0706,0.9387 c 199.5809,9.8234 374.5768,103.2851 490.6035,262.0214 102.7261,140.5397 142.7261,321.5113 109.2121,494.1066 -37.3123,192.156 -162.8164,357.0404 -339.2588,445.7106 -79.9998,40.2034 -166.2387,62.3897 -260.5568,67.032 l -19.0706,0.9386 z m 476.2766,-137.0402 c 5.2981,-5.3789 10.0728,-9.7798 10.6107,-9.7798 0.5379,0 -3.3566,4.4009 -8.6547,9.7798 -5.2981,5.3789 -10.0728,9.7798 -10.6107,9.7798 -0.5379,0 3.3566,-4.4009 8.6547,-9.7798 z m -480.1885,-89.3935 v -68.4803 l 15.3977,-1.0555 c 32.2491,-2.2104 52.0035,-18.2383 54.8346,-44.4907 0.9972,-9.2452 1.7791,-10.8456 5.5612,-11.3827 4.0369,-0.5735 4.4044,0.1545 4.4439,8.8018 0.082,18.0465 10.2954,32.5148 29.2964,41.5018 10.0568,4.7567 12.6185,5.0883 39.3107,5.0883 h 28.5532 l 13.4179,-6.8459 c 9.5762,-4.886 15.1213,-9.2728 19.3679,-15.3224 l 5.9502,-8.4768 0.579,-53.9059 0.5788,-53.9057 10.6146,-11.7295 c 21.2732,-23.5077 45.2105,-64.8966 56.4228,-97.5583 48.8531,-142.3093 -14.7119,-298.228 -148.9858,-365.4477 -36.8487,-18.4471 -86.475,-31.2971 -120.8678,-31.2971 h -14.4753 v 115.3645 115.3646 l -144.2522,0.5261 c -79.3387,0.2895 -144.5518,0.3732 -144.9181,0.1859 -0.3662,-0.1878 1.0787,-7.2285 3.2109,-15.6477 6.9824,-27.5713 37.8776,-86.7004 45.3014,-86.7004 7.842,0 28.958,8.227 37.7301,14.7001 13.9198,10.2717 21.0219,21.0938 21.0307,32.0474 0.02,16.9656 10.9769,27.5791 28.4872,27.5791 7.97,0 10.0771,-0.9481 16.596,-7.4669 12.2818,-12.2819 12.6777,-26.0206 1.1268,-39.104 -3.5051,-3.9698 -8.6661,-11.1789 -11.4692,-16.0199 -2.8031,-4.841 -8.9074,-12.4211 -13.5654,-16.8449 -10.241,-9.7261 -33.0352,-27.0907 -40.9001,-31.1577 -3.1405,-1.6241 -5.71,-3.7079 -5.71,-4.631 0,-0.923 3.5232,-4.8611 7.8295,-8.7515 4.3062,-3.8904 7.1668,-7.0783 6.3569,-7.0839 -0.81,0 0.8412,-1.546 3.6691,-3.423 2.8282,-1.8769 11.5478,-8.0335 19.3774,-13.6813 7.8297,-5.6479 15.3169,-10.2688 16.6386,-10.2688 5.1193,0 26.2474,25.5746 33.5173,40.5717 6.0962,12.5755 7.3867,17.3789 7.5379,28.0569 0.2173,15.3355 4.4995,24.0002 14.6071,29.556 20.2737,11.1437 45.3159,-8.6693 39.2816,-31.0791 -1.9613,-7.283 -8.1509,-15.4337 -10.18,-13.4048 -0.4941,0.4941 -1.0222,-0.7464 -1.1736,-2.7567 -0.4342,-5.7635 -11.1609,-31.2989 -18.1138,-43.1202 -3.4798,-5.9168 -10.1502,-15.2498 -14.823,-20.74 l -8.4957,-9.9823 18.9769,-6.1448 c 23.0017,-7.4481 42.8536,-11.6667 61.6322,-13.0971 7.7371,-0.5894 17.8086,-1.5249 22.3807,-2.079 l 8.3128,-1.0073 v -47.497 c 0,-26.1233 0.3683,-57.1063 0.48,-68.745 l -0.1448,-23.7484 51.0354,0.1272 c 86.3711,0.2149 356.569,91.2935 399.9579,321.8662 9.505,50.5109 20.5359,80.7407 20.5359,138.4703 0,57.7296 -2.3568,97.2725 -18.036,146.2201 -58.3846,182.2649 -230.2292,311.6194 -420.1395,323.0121 l -33.6885,2.0211 z m -181.2703,-73.8109 c -21.0168,-6.5717 -33.8855,-21.5455 -33.8855,-39.4291 v -10.1835 l 9.1127,2.7427 c 11.8525,3.567 32.1675,3.4939 46.2201,-0.1663 28.8125,-7.5046 54.5686,-26.0661 91.1613,-65.6962 27.3907,-29.6644 45.7697,-46.2906 59.3709,-53.7092 l 9.2908,-5.0675 v 87.4137 87.4137 l -15.3821,-0.8906 c -12.4943,-0.7231 -17.3507,-2.0025 -25.8678,-6.8144 -15.4155,-8.7093 -21.3068,-17.0061 -23.9372,-33.7113 -1.486,-9.436 -3.1382,-14.126 -5.1724,-14.6819 -1.644,-0.4493 -4.8719,-1.3553 -7.1731,-2.0131 -3.9618,-1.1327 -4.2225,-0.4309 -4.912,13.2233 -0.5731,11.3503 -1.7643,15.9499 -5.5958,21.6103 -6.1613,9.1016 -16.5441,16.3892 -28.46,19.9752 -11.8342,3.5616 -53.3614,3.5515 -64.7699,-0.019 z m -16.9562,-89.8925 c -14.1984,-5.2873 -16.4256,-9.0334 -17.9614,-30.2108 -0.7535,-10.3885 -2.4716,-20.2086 -3.8181,-21.8223 -1.3465,-1.6136 -3.009,-5.2975 -3.6944,-8.1864 -0.6854,-2.8888 -5.1536,-8.4541 -9.9288,-12.3672 -8.4784,-6.9474 -21.0888,-25.2696 -30.9932,-45.0315 -24.0263,-47.9385 -34.8009,-103.876 -30.5052,-158.3725 1.0175,-12.9093 2.2533,-24.7918 2.746,-26.4054 0.7878,-2.5798 18.4924,-2.872 146.6388,-2.4203 l 145.7428,0.5136 v 89.9496 89.9496 h -4.4561 c -5.4256,0 -29.4849,11.3344 -42.0823,19.825 -5.0636,3.4128 -28.5705,25.7133 -52.2377,49.5564 -36.6627,36.9356 -44.947,44.2965 -55.9768,49.738 -15.3536,7.5743 -31.9174,9.5877 -43.4736,5.2842 z m 57.3973,-150.8091 v -88.9963 h -8.8019 -8.8018 v 88.9963 88.9962 h 8.8018 8.8019 z m -37.1633,0 c 0,-77.8686 -0.2165,-83.128 -3.4229,-83.1211 -1.8827,0 -6.2836,1.7515 -9.7799,3.8831 l -6.3568,3.876 v 75.2865 75.2865 l 7.3348,3.8722 c 4.0342,2.1299 8.4351,3.9112 9.7798,3.9587 1.919,0.068 2.445,-17.7971 2.445,-83.0419 z m 69.9256,77.9896 4.4009,-2.7753 v -75.875 -75.8753 l -6.9121,-3.2962 c -3.8018,-1.813 -7.7627,-3.2962 -8.8019,-3.2962 -1.1859,0 -1.8896,31.0067 -1.8896,83.2602 v 83.2602 l 4.4009,-1.3134 c 2.4205,-0.7225 6.3813,-2.5625 8.8018,-4.089 z m -109.4816,-107.7807 -0.5412,-28.813 -6.5631,10.2349 c -10.6255,16.5705 -14.4696,31.5884 -13.4529,52.5579 0.7235,14.923 1.903,20.0942 7.1303,31.2648 3.4448,7.3615 7.7534,15.0332 9.5746,17.0482 3.1292,3.4623 3.3408,2.0937 3.8523,-24.9082 0.2977,-15.7142 0.2977,-41.5374 0,-57.3846 z m 142.5227,77.2707 c 9.8093,-15.5392 13.2284,-28.1821 13.1042,-48.4576 -0.076,-12.3515 -1.2151,-21.5328 -3.3985,-27.3835 -3.8607,-10.3452 -15.024,-29.3394 -17.2436,-29.3394 -0.8485,0 -1.5427,25.5253 -1.5427,56.7229 0,36.031 0.7046,56.7229 1.9316,56.7229 1.0622,0 4.2792,-3.7193 7.149,-8.2653 z M 4050.4119,2168.686 c -6.5795,-14.3961 -7.2382,-15.1739 -9.853,-11.6311 -3.7341,5.0597 -3.5514,14.8006 0.3828,20.4175 3.3733,4.8162 15.0083,10.7791 15.9591,8.1792 0.3092,-0.8457 -2.6108,-8.4802 -6.4889,-16.9656 z m 25.6209,2.1457 c 1.6884,-9.0002 -2.565,-16.8498 -11.493,-21.2108 -4.0956,-2.0006 -7.9467,-3.1374 -8.5577,-2.5262 -1.1178,1.1177 1.3476,7.9542 9.1429,25.3538 3.4294,7.6545 4.727,8.9865 6.9539,7.1383 1.5057,-1.2497 3.285,-5.1896 3.9539,-8.7551 z m -91.5497,206.4373 c -32.1787,-5.8261 -54.471,-22.7905 -68.1825,-51.8862 -8.6232,-18.2986 -11.709,-32.9629 -11.7303,-55.7449 -0.033,-34.9466 8.3532,-57.332 29.3778,-78.4202 9.355,-9.3831 15.7866,-13.9865 23.6143,-16.9012 l 10.7578,-4.0059 0.5606,18.4256 0.5604,18.4255 -9.5555,9.3075 c -27.4799,26.7661 -25.6121,86.2514 3.5346,112.584 9.0109,8.1407 25.6841,13.6406 38.3083,12.6366 4.7546,-0.3781 8.6448,-0.019 8.6448,0.8149 0,0.8264 4.3545,8.4505 9.6765,16.9427 9.4582,15.0918 9.5758,15.4654 5.2121,16.5608 -8.7708,2.2012 -31.6735,2.9095 -40.7789,1.2608 z m 268.584,-370.8709 c 0.094,-2.2787 0.5573,-2.742 1.1816,-1.1818 0.5651,1.4121 0.4957,3.0991 -0.1545,3.749 -0.65,0.65 -1.1122,-0.5054 -1.0273,-2.5672 z m 546.4632,-275.1386 -9.7063,-10.2688 10.2688,9.7063 c 9.542,9.0193 11.1658,10.8313 9.7063,10.8313 -0.3094,0 -4.9304,-4.621 -10.2688,-10.2688 z"
         id="path936"
         sodipodi:nodetypes="ccssccssssssssssscssssscsssssssssssccsssccssssssssssscssssscsssssssssssccsscccsssssccsssssccsssssscsscccsssscccssssscsssssssscssssssssssscssscsscssssscccscsssscccssssssssccssssssssscccssssscccccccccscscccsssscccssscssscssssssssssssssssssssssssssssscccssssssssssssscsss" />
      <path
         style="fill:#2a2a2a;stroke-width:0.999999"
         d="m 4117.9513,2484.0684 c -15.016,-3.2839 -34.3039,-14.1405 -42.1641,-23.7327 -8.6986,-10.6156 -16.1813,-27.2401 -18.9418,-42.0835 -1.4172,-7.621 -3.4444,-12.6089 -5.5913,-13.7578 -1.8523,-0.9913 -5.3681,-5.1143 -7.8127,-9.1619 -2.4447,-4.0479 -8.1272,-13.0809 -12.6276,-20.0735 -4.5005,-6.9926 -14.126,-23.0193 -21.3902,-35.6151 -11.7127,-20.3094 -13.0598,-23.6902 -11.9005,-29.8703 2.4717,-13.1753 20.8251,-28.2415 34.5452,-28.3577 4.2908,-0.037 5.4433,1.2336 7.5044,8.2698 7.0669,24.125 35.1078,73.1199 45.2905,79.1351 7.9078,4.6712 13.5705,17.1622 10.9399,24.1314 -2.5531,6.7642 2.5756,28.8151 8.7039,37.4211 9.0688,12.7363 32.8501,17.1027 52.4938,9.6388 16.6099,-6.3111 33.0452,-19.9326 67.3743,-55.8388 18.1914,-19.0272 38.1567,-38.5049 44.3675,-43.2839 13.5384,-10.4176 37.6939,-22.3533 45.2386,-22.3533 h 5.4341 l -0.059,20.0486 -0.059,20.0486 -12.1666,6.7383 c -9.1357,5.0599 -22.1548,16.8322 -52.2637,47.2594 -22.0535,22.2866 -44.4336,43.7468 -49.7337,47.6891 -20.7903,15.4648 -50.3184,26.5965 -69.58,26.2308 -3.7652,-0.072 -11.6868,-1.1887 -17.6036,-2.4825 z m 333.0038,-117.6986 c -39.8123,-10.7207 -65.4248,-43.6143 -65.4205,-84.0182 0,-65.565 66.695,-107.4175 125.5649,-78.8031 36.6768,17.8272 56.2715,60.4343 45.9745,99.9674 -4.194,16.1017 -9.7953,26.0282 -21.7722,38.5849 -22.1331,23.2041 -54.1213,32.4079 -84.3467,24.269 z m -448.1644,-102.5309 c -10.4998,-2.5946 -22.0781,-11.9578 -27.2751,-22.0566 -4.4911,-8.727 -4.7677,-11.2159 -4.9969,-44.9692 l -0.2425,-35.7311 5.6455,-10.1876 c 3.1796,-5.7376 9.0846,-12.5725 13.519,-15.6477 6.9282,-4.8048 9.6546,-5.4601 22.7157,-5.4601 13.67,0 14.8115,0.3091 14.4485,3.912 -0.2165,2.1515 -1.4374,12.7137 -2.7127,23.4715 -2.791,23.5414 -1.3471,63.8013 3.1133,86.8167 1.7484,9.0213 2.4622,17.0906 1.5863,17.9319 -2.5891,2.4864 -18.6677,3.6831 -25.8011,1.9202 z m 27.1423,-135.0297 v -5.8678 h 144.7411 144.7412 v 5.8678 5.8679 H 4174.6741 4029.933 Z m -11.1668,-15.5592 c -12.4067,-5.6322 -24.7766,-19.1156 -29.8566,-32.5439 -8.7187,-23.0463 -1.6661,-54.6754 16.7323,-75.0403 17.2541,-19.0982 37.2517,-27.8493 64.4634,-28.2094 l 17.6788,-0.2342 -2.6443,-9.7798 c -3.5059,-12.9659 -2.148,-34.742 2.8725,-46.0644 18.7145,-42.2062 74.6722,-46.8946 116.3406,-9.7476 20.1627,17.9749 34.5718,42.2097 43.5814,73.2999 6.6172,22.8345 6.4875,29.2248 -0.7392,36.4515 -4.5826,4.5828 -7.4215,5.7174 -14.3037,5.7174 -11.9558,0 -17.1337,-6.1468 -23.8905,-28.3614 -7.5643,-24.8691 -15.6078,-39.129 -30.362,-53.8269 -13.6106,-13.5585 -22.0408,-17.5657 -36.954,-17.5657 -13.4623,0 -19.3366,9.0677 -17.3416,26.7683 0.9315,8.263 0.5101,9.3677 -5.6265,14.7558 -8.189,7.1899 -8.4392,12.0556 -0.8156,15.8587 12.0874,6.0299 42.3667,30.5498 48.8047,39.5214 9.0227,12.5737 15.6892,29.3713 15.7457,39.6745 0.065,11.5874 -7.9136,19.8982 -19.099,19.8982 -10.1011,0 -16.8435,-5.4565 -20.6895,-16.7436 -6.6237,-19.4395 -24.4865,-36.4861 -47.1727,-45.0176 -14.2357,-5.3535 -36.6156,-5.0427 -47.3621,0.658 -11.9302,6.3283 -20.7383,20.0294 -21.735,33.8084 -0.747,10.3276 -0.4397,11.2426 5.436,16.1867 3.4253,2.8821 6.8775,5.2402 7.6719,5.2402 0.7943,0 -0.5244,6.3814 -2.9307,14.1808 -2.4062,7.7994 -4.9008,16.6012 -5.5435,19.5596 -1.3802,6.3535 -1.6239,6.3844 -12.2608,1.5554 z"
         id="path932"
         sodipodi:nodetypes="csssssssssssssssscccssssccscssssssscsssssssscccccccccsssscssssssssssssscssssssssss" />
      <path
         style="fill:#000000;stroke-width:0.999999"
         d="m 4293.9878,2892.3787 c -176.8467,-9.0487 -333.0592,-77.4766 -454.8094,-199.2268 -112.2266,-112.2267 -180.6778,-257.2733 -196.6363,-416.6681 -3.0198,-30.1602 -3.0198,-96.9774 0,-127.1375 26.7918,-267.5983 203.8255,-492.1245 456.7152,-579.2379 71.9526,-24.7857 142.2681,-36.4167 220.158,-36.4167 22.0535,0 50.6594,1.0576 63.5687,2.3501 267.5983,26.7918 492.1244,203.8255 579.2379,456.7153 16.7726,48.6907 28.798,103.9664 34.0666,156.5892 3.0198,30.1601 3.0198,96.9773 0,127.1375 -26.7918,267.5982 -203.8255,492.1244 -456.7153,579.2378 -49.0492,16.8962 -106.3599,29.3195 -155.6112,33.7319 -26.4442,2.3693 -71.935,3.8482 -89.9742,2.9252 z m 91.2288,-46.772 c 299.8692,-31.4907 535.3996,-267.0212 566.8904,-566.8904 3.8329,-36.4994 3.8329,-95.1032 0,-131.6026 -25.9278,-246.8961 -191.7368,-455.5223 -425.784,-535.7341 -102.0512,-34.9748 -216.1717,-43.6451 -321.6894,-24.4407 -259.3159,47.1958 -463.9987,251.8785 -511.1945,511.1944 -13.0398,71.6467 -13.0398,157.9167 0,229.5634 47.5276,261.1385 254.731,466.6445 516.4423,512.2119 50.972,8.875 122.8428,11.2106 175.3352,5.6981 z m -102.9507,-37.2833 c -16.8727,-7.3169 -22.0785,-17.0482 -23.4285,-43.794 l -1.0349,-20.5043 -17.4081,-2.4802 c -9.5744,-1.3643 -27.0769,-4.6585 -38.8943,-7.3206 -11.8173,-2.662 -22.0908,-4.4662 -22.8299,-4.0095 -0.7392,0.4569 -3.8359,7.2568 -6.8817,15.111 -6.7664,17.4489 -10.873,23.5517 -19.389,28.8148 -13.6431,8.432 -20.9146,7.6816 -54.5716,-5.6306 -33.6914,-13.326 -40.397,-18.4009 -44.5135,-33.6879 -2.6858,-9.9745 -1.6777,-15.715 6.2234,-35.4374 3.3569,-8.3787 5.7705,-15.4882 5.3639,-15.7987 -0.4067,-0.3104 -10.183,-6.1841 -21.7249,-13.0529 -11.5421,-6.8687 -29.0748,-18.5133 -38.9614,-25.8768 l -17.9755,-13.3881 -13.8497,13.6991 c -7.6173,7.5344 -16.3276,14.6259 -19.356,15.759 -7.0691,2.6445 -21.0667,2.6429 -28.0266,0 -7.1275,-2.71 -48.5773,-43.6737 -52.4503,-51.8351 -3.4795,-7.3325 -3.9393,-21.6099 -0.9533,-29.5919 1.1331,-3.0285 8.2254,-11.7397 15.7611,-19.3582 l 13.7011,-13.8519 -12.8391,-17.2213 c -7.0616,-9.4717 -17.3535,-24.5829 -22.8713,-33.5801 -5.5175,-8.9974 -10.6382,-16.3589 -11.3792,-16.3589 -0.7411,0 -8.4562,3.0806 -17.1447,6.8459 -23.2326,10.0679 -37.6462,8.8051 -50.039,-4.3837 -3.0198,-3.2141 -10.7214,-17.8627 -17.1147,-32.5527 -13.0069,-29.8869 -14.5825,-40.551 -7.9201,-53.6049 5.2162,-10.2201 9.0646,-13.1601 27.7544,-21.203 9.0545,-3.8967 16.6642,-7.2484 16.9104,-7.4485 0.2461,-0.2001 -2.1003,-10.4517 -5.2142,-22.7811 -3.1139,-12.3296 -7.1463,-32.0789 -8.961,-43.8877 -1.8146,-11.8087 -3.6215,-22.5706 -4.0152,-23.9153 -0.5051,-1.7248 -6.0633,-2.4577 -18.87,-2.488 -26.0684,-0.063 -38.1428,-6.4069 -45.4442,-23.8815 -4.3098,-10.3148 -4.3098,-63.1058 0,-73.4207 7.197,-17.2246 16.9071,-22.5059 43.8826,-23.8675 l 20.5043,-1.0349 2.4802,-17.408 c 1.3643,-9.5746 4.6585,-27.077 7.3206,-38.8943 2.662,-11.8173 4.4662,-22.0908 4.0095,-22.83 -0.4567,-0.7391 -7.2568,-3.8358 -15.111,-6.8816 -17.4489,-6.7665 -23.5517,-10.873 -28.8148,-19.3891 -8.432,-13.643 -7.6817,-20.9145 5.6306,-54.5715 13.326,-33.6915 18.4009,-40.3973 33.6879,-44.5136 9.9745,-2.6859 15.715,-1.6778 35.4374,6.2235 8.3789,3.3566 15.4882,5.7705 15.7987,5.3638 0.3104,-0.4066 6.1841,-10.1829 13.0529,-21.725 6.8687,-11.5422 18.5133,-29.0746 25.8767,-38.9612 l 13.3882,-17.9755 -13.699,-13.8498 c -7.5345,-7.6175 -14.626,-16.3276 -15.7591,-19.356 -2.986,-7.9821 -2.5262,-22.2594 0.9533,-29.5919 3.873,-8.1615 45.3228,-49.1254 52.4503,-51.8352 6.9599,-2.6462 20.9575,-2.6475 28.0266,0 3.0284,1.1329 11.7394,8.2254 19.3581,15.7612 l 13.8517,13.7011 17.2215,-12.8393 c 9.4717,-7.0614 24.5827,-17.3535 33.5801,-22.8711 8.9975,-5.5176 16.3589,-10.6383 16.3589,-11.3794 0,-0.7409 -3.0806,-8.456 -6.8458,-17.1446 -10.068,-23.2327 -8.8052,-37.6464 4.3837,-50.0389 3.214,-3.0198 17.8626,-10.7214 32.5526,-17.1147 29.8869,-13.0069 40.551,-14.5827 53.6047,-7.9203 10.2203,5.2164 13.1603,9.0647 21.2032,27.7543 3.8965,9.0548 7.2484,16.6644 7.4485,16.9105 0.2001,0.2461 10.4515,-2.1003 22.7811,-5.214 12.3294,-3.1139 32.079,-7.1463 43.8877,-8.9611 11.8087,-1.8147 22.5706,-3.6216 23.9153,-4.0153 1.7248,-0.5051 2.4577,-6.0633 2.488,-18.87 0.063,-26.0685 6.407,-38.1428 23.8813,-45.444 9.0059,-3.7629 61.7755,-4.3002 72.115,-0.7343 18.6763,6.4412 23.9401,15.5335 25.2262,43.5726 l 0.9821,21.416 17.6036,2.5072 c 9.682,1.3791 26.4055,4.4144 37.1633,6.7449 10.7578,2.3307 20.7222,4.3279 22.143,4.4383 1.4848,0.1154 5.4374,-6.8265 9.294,-16.3216 7.6992,-18.9567 13.6559,-26.0835 25.6188,-30.6522 11.7976,-4.5056 20.3948,-2.8636 51.5001,9.8361 28.9496,11.8197 37.148,18.1858 40.9214,31.7744 3.1732,11.4279 2.6754,15.004 -4.7723,34.2886 -3.785,9.8009 -6.6456,17.9557 -6.3569,18.1216 27.4867,15.7956 44.9728,27.2045 74.9769,48.9186 1.8988,1.3741 5.9115,-1.3044 14.9361,-9.9703 6.7868,-6.5171 15.1526,-13.3039 18.5906,-15.0817 7.0681,-3.6551 23.0076,-4.2557 31.2565,-1.178 7.3542,2.744 49.1981,44.1967 52.6529,52.1606 3.6968,8.5221 3.4448,24.7918 -0.5021,32.4245 -1.778,3.438 -8.5648,11.8039 -15.0818,18.5907 -8.6659,9.0248 -11.3444,13.0372 -9.9701,14.9361 15.3953,21.273 29.3022,41.6324 35.1572,51.4691 4.0017,6.7237 7.603,12.2248 8.0026,12.2248 0.3994,0 8.1685,-3.0806 17.2643,-6.8459 19.2134,-7.9533 29.4345,-8.6336 41.5556,-2.7659 10.9297,5.2909 13.5783,9.291 27.0018,40.7802 10.3647,24.314 11.1445,27.1846 10.4308,38.3956 -1.1206,17.598 -6.9803,24.4659 -29.9833,35.1423 l -18.0334,8.3698 5.5254,21.9218 c 3.0391,12.057 6.9869,31.7242 8.7729,43.705 1.7859,11.9809 3.5557,22.8834 3.9326,24.2281 0.4882,1.7412 6.1556,2.445 19.6889,2.445 27.3197,0 38.8388,6.4116 45.329,25.2305 3.0331,8.7946 3.0331,62.0141 0,70.8087 -6.4411,18.6763 -15.5334,23.9404 -43.5725,25.2263 l -21.416,0.9821 -2.5074,17.6036 c -1.3789,9.682 -4.4142,26.4055 -6.7449,37.1633 -2.3308,10.7578 -4.328,20.7222 -4.4381,22.143 -0.1154,1.4848 6.8265,5.4376 16.3213,9.294 18.9568,7.6994 26.0837,13.6559 30.6523,25.619 4.5055,11.7975 2.8637,20.3946 -9.8362,51.4998 -11.8196,28.9498 -18.1855,37.1482 -31.7744,40.9215 -11.4279,3.1731 -15.0037,2.6756 -34.2886,-4.7722 -9.8009,-3.7851 -17.9555,-6.6457 -18.1215,-6.3568 -15.7956,27.4865 -27.2043,44.9728 -48.9184,74.9769 -1.3743,1.8988 1.3042,5.9113 9.9701,14.9359 6.517,6.787 13.3038,15.1526 15.0818,18.5908 3.9469,7.6326 4.1989,23.9024 0.5021,32.4246 -3.4548,7.9639 -45.2987,49.4165 -52.6529,52.1606 -8.2489,3.0777 -24.1884,2.477 -31.2565,-1.1781 -3.438,-1.778 -11.8038,-8.5646 -18.5906,-15.0816 -9.0246,-8.6661 -13.0373,-11.3446 -14.9361,-9.9704 -21.2729,15.3954 -41.6323,29.3023 -51.4692,35.1573 -6.7236,4.0019 -12.2247,7.603 -12.2247,8.0026 0,0.3996 3.0806,8.1685 6.8458,17.2643 7.9533,19.2134 8.6338,29.4347 2.7661,41.5556 -5.2791,10.9052 -9.3143,13.5882 -40.3008,26.797 -19.8186,8.45 -28.0635,10.9992 -35.569,10.9992 -19.709,0 -26.8287,-5.6524 -38.4753,-30.5461 l -8.3429,-17.8325 -21.9217,5.5256 c -12.0571,3.039 -31.7243,6.9867 -43.7052,8.7727 -11.9806,1.786 -22.8833,3.5557 -24.2281,3.9327 -1.7412,0.4882 -2.4449,6.1556 -2.4449,19.6889 0,27.3197 -6.4116,38.8387 -25.2303,45.329 -10.1849,3.5125 -63.9629,2.9026 -72.5539,-0.8229 z m 101.5717,-138.6603 c 110.95,-16.149 212.2702,-71.6803 284.9273,-156.1624 47.2347,-54.9218 81.3721,-121.3154 98.6767,-191.9156 9.5026,-38.7699 12.392,-64.1068 12.392,-108.6701 0,-75.3458 -13.9009,-135.676 -46.6976,-202.6714 -60.3812,-123.3432 -171.328,-212.5784 -305.0506,-245.3549 -39.1748,-9.602 -64.0546,-12.4164 -109.6481,-12.4033 -45.6418,0.019 -69.3228,2.7544 -110.5118,12.7937 -164.0989,39.9973 -296.149,172.0472 -336.1461,336.1461 -10.1401,41.6023 -12.8061,64.8118 -12.8061,111.4898 0,46.6524 2.6715,69.9331 12.7752,111.3304 40.1223,164.3919 171.9445,296.2141 336.3364,336.3364 23.0001,5.6136 55.5047,10.98 77.1011,12.7292 18.68,1.5129 78.3544,-0.6936 98.6516,-3.6479 z"
         id="path930" />
    </g>
  </g>
</svg>
